<svg xmlns="http://www.w3.org/2000/svg" width="628" height="331" fill="none"><path fill="#E1ECD4" d="M17 17h284v136H17V17Z"/><path fill="#F2E4D5" d="M17 176h284v136H17V176Z"/><path fill="#E1ECD4" d="M326 17h284v136H326V17Z"/><path fill="#E6E6E6" d="M326 176h284v136H326V176Z"/><path fill="#1A1A1A" d="M287.686 4.512h-2.992V8h-.924V.321h.924V3.71h2.992V.321h.924V8h-.924V4.512ZM289.969 8v-.738h1.914V1.058h-1.914V.321h4.752v.737h-1.914v6.204h1.914V8h-4.752ZM300.085 6.976h-.055c-.066.147-.143.29-.231.43a1.496 1.496 0 0 1-.825.626 2.093 2.093 0 0 1-.682.1c-.836 0-1.459-.338-1.87-1.013-.403-.674-.605-1.642-.605-2.904 0-1.32.224-2.32.671-3.003.447-.682 1.137-1.023 2.068-1.023.359 0 .671.048.935.143.264.096.488.224.671.385.191.162.348.345.473.55.125.198.227.4.308.605l-.792.363a3.145 3.145 0 0 0-.231-.473 1.37 1.37 0 0 0-.308-.396 1.227 1.227 0 0 0-.429-.275 1.628 1.628 0 0 0-.594-.099c-.616 0-1.071.231-1.364.693-.286.462-.429 1.078-.429 1.848v1.188c0 .39.029.745.088 1.067.059.316.154.59.286.825.139.235.315.418.528.55.22.125.488.187.803.187.499 0 .887-.15 1.166-.45.279-.301.418-.69.418-1.167v-.792h-1.617v-.737h2.475V8h-.858V6.976ZM306.153 4.512h-2.992V8h-.924V.321h.924V3.71h2.992V.321h.924V8h-.924V4.512ZM316.341 8 314.064.32h.979l1.089 3.84.825 2.903h.055l.825-2.904 1.089-3.839h.946L317.595 8h-1.254ZM325.115 8l-.649-2.19h-2.695L321.122 8h-.957L322.519.32h1.221L326.094 8h-.979Zm-1.947-6.7h-.099l-1.078 3.707h2.255L323.168 1.3ZM327.299 8V.32h.924v6.875h3.641V8h-4.565ZM333.939.321v4.61c0 .373.011.707.033 1 .022.294.081.547.176.76.095.205.242.362.44.472.205.11.488.165.847.165s.638-.055.836-.165c.205-.11.356-.267.451-.473.095-.212.154-.465.176-.759.022-.293.033-.627.033-1V.32h.924v4.39c0 .571-.029 1.07-.088 1.495-.051.426-.165.781-.341 1.067a1.596 1.596 0 0 1-.737.65c-.315.139-.733.208-1.254.208s-.942-.07-1.265-.209a1.673 1.673 0 0 1-.737-.649c-.169-.286-.282-.641-.341-1.067a12.737 12.737 0 0 1-.077-1.496V.321h.924ZM339.281 8V.32h4.73v.803h-3.806V3.71h3.674v.803h-3.674v2.684h3.806V8h-4.73ZM287.287 329.999v-7.678h.924v6.875h3.641v.803h-4.565ZM295.423 330.131c-.47 0-.873-.088-1.21-.264a2.287 2.287 0 0 1-.836-.781c-.22-.337-.382-.751-.484-1.243a8.25 8.25 0 0 1-.154-1.683 8.2 8.2 0 0 1 .154-1.672c.102-.498.264-.916.484-1.254.22-.337.498-.594.836-.77.337-.183.74-.275 1.21-.275.469 0 .872.092 1.21.275.337.176.616.433.836.77.22.338.381.756.484 1.254a8.27 8.27 0 0 1 .154 1.672c0 .631-.052 1.192-.154 1.683-.103.492-.264.906-.484 1.243-.22.338-.499.598-.836.781-.338.176-.741.264-1.21.264Zm0-.803c.308 0 .568-.058.781-.176.212-.124.388-.297.528-.517.139-.22.238-.484.297-.792.066-.315.099-.667.099-1.056v-1.254c0-.381-.033-.729-.099-1.045a2.276 2.276 0 0 0-.297-.803 1.467 1.467 0 0 0-.528-.506 1.528 1.528 0 0 0-.781-.187c-.308 0-.569.063-.781.187a1.451 1.451 0 0 0-.528.506c-.14.22-.242.488-.308.803a5.708 5.708 0 0 0-.088 1.045v1.254c0 .389.029.741.088 1.056a2.4 2.4 0 0 0 .308.792c.139.22.315.393.528.517.212.118.473.176.781.176ZM299.269 329.999l-.605-7.678h.825l.319 4.4.165 2.321h.088l1.012-4.719h1.034l1.012 4.719h.088l.165-2.321.319-4.4h.803l-.605 7.678h-1.331l-.935-4.587h-.088l-.935 4.587h-1.331ZM313.263 329.999l-2.277-7.678h.979l1.089 3.839.825 2.904h.055l.825-2.904 1.089-3.839h.946l-2.277 7.678h-1.254ZM322.037 329.999l-.649-2.189h-2.695l-.649 2.189h-.957l2.354-7.678h1.221l2.354 7.678h-.979Zm-1.947-6.699h-.099l-1.078 3.707h2.255l-1.078-3.707ZM324.221 329.999v-7.678h.924v6.875h3.641v.803h-4.565ZM330.861 322.321v4.609c0 .374.011.708.033 1.001.022.294.081.547.176.759.095.206.242.363.44.473.205.11.488.165.847.165s.638-.055.836-.165c.205-.11.356-.267.451-.473.095-.212.154-.465.176-.759.022-.293.033-.627.033-1.001v-4.609h.924v4.389c0 .572-.029 1.071-.088 1.496-.051.426-.165.781-.341 1.067a1.592 1.592 0 0 1-.737.649c-.315.14-.733.209-1.254.209s-.942-.069-1.265-.209a1.67 1.67 0 0 1-.737-.649c-.169-.286-.282-.641-.341-1.067a12.733 12.733 0 0 1-.077-1.496v-4.389h.924ZM336.203 329.999v-7.678h4.73v.803h-3.806v2.585h3.674v.803h-3.674v2.684h3.806v.803h-4.73ZM8 194.566H.32v-.924h6.875v-3.641H8v4.565ZM8.131 186.431c0 .469-.088.872-.264 1.21a2.303 2.303 0 0 1-.78.836c-.338.22-.752.381-1.244.484a8.326 8.326 0 0 1-1.683.154c-.623 0-1.18-.052-1.672-.154-.498-.103-.916-.264-1.254-.484a2.212 2.212 0 0 1-.77-.836c-.183-.338-.275-.741-.275-1.21 0-.47.092-.873.275-1.21.176-.338.433-.616.77-.836.338-.22.756-.382 1.254-.484a8.193 8.193 0 0 1 1.672-.154c.631 0 1.192.051 1.683.154.492.102.906.264 1.243.484.338.22.598.498.781.836.176.337.264.74.264 1.21Zm-.803 0c0-.308-.058-.569-.176-.781a1.54 1.54 0 0 0-.517-.528 2.23 2.23 0 0 0-.792-.297 5.17 5.17 0 0 0-1.056-.099H3.533c-.38 0-.73.033-1.045.099a2.236 2.236 0 0 0-.803.297c-.22.139-.388.315-.506.528-.124.212-.187.473-.187.781 0 .308.063.568.187.781.118.212.286.388.506.528.22.139.488.242.803.308a5.79 5.79 0 0 0 1.045.088h1.254c.39 0 .741-.03 1.056-.088.308-.066.572-.169.792-.308.22-.14.393-.316.517-.528.118-.213.176-.473.176-.781ZM8 182.585l-7.679.605v-.825l4.4-.319 2.321-.165v-.088l-4.719-1.012v-1.034l4.72-1.012v-.088l-2.322-.165-4.4-.319v-.803l7.678.605v1.331l-4.587.935v.088l4.587.935v1.331ZM8 170.274H.32v-4.73h.803v3.806H3.71v-3.674h.803v3.674h2.684v-3.806H8v4.73ZM8 164.118H.32v-4.84h.803v3.916H3.71v-3.586h.803v3.586H8v.924ZM8 157.962H.32v-4.84h.803v3.916H3.71v-3.586h.803v3.586H8v.924ZM8.131 149.496c0 .47-.088.873-.264 1.21a2.295 2.295 0 0 1-.78.836c-.338.22-.752.382-1.244.484a8.254 8.254 0 0 1-1.683.154c-.623 0-1.18-.051-1.672-.154-.498-.102-.916-.264-1.254-.484a2.205 2.205 0 0 1-.77-.836c-.183-.337-.275-.74-.275-1.21 0-.469.092-.872.275-1.21.176-.337.433-.616.77-.836.338-.22.756-.381 1.254-.484a8.264 8.264 0 0 1 1.672-.154c.631 0 1.192.052 1.683.154.492.103.906.264 1.243.484.338.22.598.499.781.836.176.338.264.741.264 1.21Zm-.803 0c0-.308-.058-.568-.176-.781a1.558 1.558 0 0 0-.517-.528 2.269 2.269 0 0 0-.792-.297 5.17 5.17 0 0 0-1.056-.099H3.533c-.38 0-.73.033-1.045.099a2.274 2.274 0 0 0-.803.297c-.22.14-.388.316-.506.528-.124.213-.187.473-.187.781 0 .308.063.569.187.781.118.213.286.389.506.528.22.14.488.242.803.308a5.7 5.7 0 0 0 1.045.088h1.254c.39 0 .741-.029 1.056-.088a2.4 2.4 0 0 0 .792-.308 1.54 1.54 0 0 0 .517-.528c.118-.212.176-.473.176-.781ZM8 144.727v.924H.32v-2.794c0-.712.195-1.254.583-1.628.39-.374.932-.561 1.628-.561.624 0 1.122.161 1.496.484.374.322.59.792.65 1.408l3.321-1.958v1.034l-3.278 1.87v1.221H8Zm-4.06-1.848c0-.389-.095-.69-.286-.902-.198-.22-.476-.33-.836-.33h-.572c-.359 0-.634.11-.825.33-.198.212-.297.513-.297.902v1.848H3.94v-1.848ZM1.124 136.723H8v.924H1.124v2.563H.321v-6.05h.803v2.563ZM623.512 194.168v2.992h3.487v.924h-7.678v-.924h3.388v-2.992h-3.388v-.924h7.678v.924h-3.487ZM626.999 191.884h-.737v-1.914h-6.204v1.914h-.737v-4.752h.737v1.914h6.204v-1.914h.737v4.752ZM625.976 181.769v.055c.147.066.29.143.429.231.14.088.264.201.374.341.103.132.187.293.253.484.066.19.099.418.099.682 0 .836-.337 1.459-1.012 1.87-.674.403-1.642.605-2.904.605-1.32 0-2.321-.224-3.003-.671-.682-.448-1.023-1.137-1.023-2.068 0-.36.048-.671.143-.935.096-.264.224-.488.385-.671a2.24 2.24 0 0 1 .55-.473c.198-.125.4-.228.605-.308l.363.792a3.192 3.192 0 0 0-.473.231c-.154.08-.286.183-.396.308-.117.117-.209.26-.275.429a1.62 1.62 0 0 0-.099.594c0 .616.231 1.07.693 1.364.462.286 1.078.429 1.848.429h1.188c.389 0 .745-.03 1.067-.088.316-.059.591-.154.825-.286.235-.14.418-.316.55-.528.125-.22.187-.488.187-.803 0-.499-.15-.888-.451-1.166-.3-.279-.689-.418-1.166-.418h-.792v1.617h-.737v-2.475h3.795v.858h-1.023ZM623.512 175.701v2.992h3.487v.924h-7.678v-.924h3.388v-2.992h-3.388v-.924h7.678v.924h-3.487ZM626.999 167.195h-7.678v-4.73h.803v3.806h2.585v-3.674h.803v3.674h2.684v-3.806h.803v4.73ZM626.999 161.04h-7.678v-4.84h.803v3.916h2.585v-3.586h.803v3.586h3.487v.924ZM626.999 154.884h-7.678v-4.84h.803v3.916h2.585v-3.586h.803v3.586h3.487v.924ZM627.131 146.418c0 .47-.088.873-.264 1.21a2.287 2.287 0 0 1-.781.836c-.337.22-.751.382-1.243.484a8.25 8.25 0 0 1-1.683.154 8.2 8.2 0 0 1-1.672-.154c-.498-.102-.916-.264-1.254-.484a2.207 2.207 0 0 1-.77-.836c-.183-.337-.275-.74-.275-1.21 0-.469.092-.872.275-1.21.176-.337.433-.616.77-.836.338-.22.756-.381 1.254-.484a8.27 8.27 0 0 1 1.672-.154c.631 0 1.192.052 1.683.154.492.103.906.264 1.243.484.338.22.598.499.781.836.176.338.264.741.264 1.21Zm-.803 0c0-.308-.058-.568-.176-.781a1.552 1.552 0 0 0-.517-.528 2.269 2.269 0 0 0-.792-.297 5.166 5.166 0 0 0-1.056-.099h-1.254c-.381 0-.729.033-1.045.099a2.276 2.276 0 0 0-.803.297c-.22.14-.388.316-.506.528a1.528 1.528 0 0 0-.187.781c0 .308.063.569.187.781.118.213.286.389.506.528.22.14.488.242.803.308.316.059.664.088 1.045.088h1.254c.389 0 .741-.029 1.056-.088a2.4 2.4 0 0 0 .792-.308c.22-.139.393-.315.517-.528.118-.212.176-.473.176-.781ZM626.999 141.649v.924h-7.678v-2.794c0-.712.195-1.254.583-1.628.389-.374.932-.561 1.628-.561.624 0 1.122.161 1.496.484.374.322.591.792.649 1.408l3.322-1.958v1.034l-3.278 1.87v1.221h3.278Zm-4.059-1.848c0-.389-.095-.69-.286-.902-.198-.22-.476-.33-.836-.33h-.572c-.359 0-.634.11-.825.33-.198.212-.297.513-.297.902v1.848h2.816v-1.848ZM620.124 133.645h6.875v.924h-6.875v2.563h-.803v-6.05h.803v2.563Z"/><path fill="#9DCF62" d="M437.934 80.322h2.145c.938 0 1.639.322 2.101.968.462.645.693 1.602.693 2.87 0 1.27-.231 2.226-.693 2.871-.462.646-1.163.968-2.101.968h-2.145v-7.677Zm2.101 6.874c.616 0 1.078-.212 1.386-.638.315-.425.473-1.026.473-1.804v-1.188c0-.777-.158-1.378-.473-1.803-.308-.426-.77-.639-1.386-.639h-1.177v6.073h1.177ZM446.344 88.132c-.469 0-.872-.089-1.21-.264a2.304 2.304 0 0 1-.836-.781c-.22-.338-.381-.752-.484-1.243a8.327 8.327 0 0 1-.154-1.683c0-.624.052-1.181.154-1.672.103-.5.264-.917.484-1.255.22-.337.499-.593.836-.77.338-.183.741-.275 1.21-.275.47 0 .873.092 1.21.276.338.175.616.432.836.77.22.337.382.755.484 1.254.103.49.154 1.048.154 1.671 0 .631-.051 1.192-.154 1.684-.102.49-.264.905-.484 1.243-.22.337-.498.597-.836.78-.337.176-.74.264-1.21.264Zm0-.803c.308 0 .569-.06.781-.176a1.54 1.54 0 0 0 .528-.518c.14-.22.239-.484.297-.791.066-.316.099-.668.099-1.056v-1.254c0-.382-.033-.73-.099-1.046a2.236 2.236 0 0 0-.297-.802 1.445 1.445 0 0 0-.528-.507c-.212-.124-.473-.186-.781-.186-.308 0-.568.062-.781.187a1.46 1.46 0 0 0-.528.505c-.139.22-.242.488-.308.803a5.788 5.788 0 0 0-.088 1.046v1.253c0 .39.03.741.088 1.056.066.308.169.572.308.792.14.22.316.393.528.517.213.118.473.177.781.177ZM456.28 88v-.737h1.914v-6.205h-1.914v-.737h4.752v.737h-1.914v6.204h1.914V88h-4.752ZM465.273 81.124V88h-.924v-6.876h-2.563v-.802h6.05v.802h-2.563ZM475.616 81.499h-.077v6.5h-.836v-7.677h1.309l2.618 6.434h.077v-6.434h.836v7.677h-1.309l-2.618-6.5ZM480.969 88v-7.678h4.73v.802h-3.806v2.586h3.674v.803h-3.674v2.683h3.806V88h-4.73ZM492.459 88h-1.045l-.913-1.53-1.012-1.671h-.044L488.4 86.47l-.968 1.53h-1.012l2.508-3.916-2.365-3.763h1.045l.891 1.486.957 1.55h.044l.946-1.55.924-1.486h1.012l-2.376 3.752L492.459 88ZM496.052 81.124V88h-.924v-6.876h-2.563v-.802h6.05v.802h-2.563Z"/><path fill="gray" d="M434.856 241.322h2.145c.939 0 1.639.323 2.101.968.462.646.693 1.603.693 2.871 0 1.269-.231 2.226-.693 2.871-.462.646-1.162.968-2.101.968h-2.145v-7.678Zm2.101 6.875c.616 0 1.078-.212 1.386-.638.316-.425.473-1.026.473-1.804v-1.188c0-.777-.157-1.378-.473-1.804-.308-.425-.77-.638-1.386-.638h-1.177v6.072h1.177ZM443.267 249.132c-.469 0-.873-.088-1.21-.264a2.295 2.295 0 0 1-.836-.781c-.22-.337-.381-.751-.484-1.243a8.25 8.25 0 0 1-.154-1.683 8.2 8.2 0 0 1 .154-1.672c.103-.498.264-.916.484-1.254.22-.337.499-.594.836-.77.337-.183.741-.275 1.21-.275s.873.092 1.21.275c.337.176.616.433.836.77.22.338.381.756.484 1.254a8.2 8.2 0 0 1 .154 1.672 8.25 8.25 0 0 1-.154 1.683c-.103.492-.264.906-.484 1.243-.22.338-.499.598-.836.781-.337.176-.741.264-1.21.264Zm0-.803c.308 0 .568-.058.781-.176.213-.124.389-.297.528-.517.139-.22.238-.484.297-.792.066-.315.099-.667.099-1.056v-1.254c0-.381-.033-.729-.099-1.045a2.276 2.276 0 0 0-.297-.803 1.451 1.451 0 0 0-.528-.506 1.528 1.528 0 0 0-.781-.187c-.308 0-.568.063-.781.187a1.451 1.451 0 0 0-.528.506c-.139.22-.242.488-.308.803a5.708 5.708 0 0 0-.088 1.045v1.254c0 .389.029.741.088 1.056.066.308.169.572.308.792.139.22.315.393.528.517.213.118.473.176.781.176ZM447.916 242.499h-.077V249h-.836v-7.678h1.309l2.618 6.435h.077v-6.435h.836V249h-1.309l-2.618-6.501ZM455.315 240.86h1.419l-1.265 3.047h-.737l.583-3.047ZM462.196 242.125V249h-.924v-6.875h-2.563v-.803h6.05v.803h-2.563ZM471.791 241.322h2.145c.938 0 1.639.323 2.101.968.462.646.693 1.603.693 2.871 0 1.269-.231 2.226-.693 2.871-.462.646-1.163.968-2.101.968h-2.145v-7.678Zm2.101 6.875c.616 0 1.078-.212 1.386-.638.315-.425.473-1.026.473-1.804v-1.188c0-.777-.158-1.378-.473-1.804-.308-.425-.77-.638-1.386-.638h-1.177v6.072h1.177ZM480.201 249.132c-.469 0-.872-.088-1.21-.264a2.295 2.295 0 0 1-.836-.781c-.22-.337-.381-.751-.484-1.243a8.321 8.321 0 0 1-.154-1.683c0-.623.052-1.18.154-1.672.103-.498.264-.916.484-1.254.22-.337.499-.594.836-.77.338-.183.741-.275 1.21-.275.47 0 .873.092 1.21.275.338.176.616.433.836.77.22.338.382.756.484 1.254a8.2 8.2 0 0 1 .154 1.672 8.25 8.25 0 0 1-.154 1.683c-.102.492-.264.906-.484 1.243-.22.338-.498.598-.836.781-.337.176-.74.264-1.21.264Zm0-.803c.308 0 .569-.058.781-.176.213-.124.389-.297.528-.517.14-.22.239-.484.297-.792.066-.315.099-.667.099-1.056v-1.254c0-.381-.033-.729-.099-1.045a2.238 2.238 0 0 0-.297-.803 1.451 1.451 0 0 0-.528-.506c-.212-.124-.473-.187-.781-.187-.308 0-.568.063-.781.187a1.467 1.467 0 0 0-.528.506c-.139.22-.242.488-.308.803a5.797 5.797 0 0 0-.088 1.045v1.254c0 .389.03.741.088 1.056.066.308.169.572.308.792.14.22.316.393.528.517.213.118.473.176.781.176ZM490.137 249v-.737h1.914v-6.204h-1.914v-.737h4.752v.737h-1.914v6.204h1.914V249h-4.752ZM499.13 242.125V249h-.924v-6.875h-2.563v-.803h6.05v.803h-2.563Z"/><path fill="#9DCF62" d="M132.012 80.322h2.145c.938 0 1.639.322 2.101.968.462.645.693 1.602.693 2.87 0 1.27-.231 2.226-.693 2.871-.462.646-1.163.968-2.101.968h-2.145v-7.677Zm2.101 6.874c.616 0 1.078-.212 1.386-.638.315-.425.473-1.026.473-1.804v-1.188c0-.777-.158-1.378-.473-1.803-.308-.426-.77-.639-1.386-.639h-1.177v6.073h1.177ZM140.422 88.132c-.469 0-.872-.089-1.21-.264a2.304 2.304 0 0 1-.836-.781c-.22-.338-.381-.752-.484-1.243a8.327 8.327 0 0 1-.154-1.683c0-.624.052-1.181.154-1.672.103-.5.264-.917.484-1.255.22-.337.499-.593.836-.77.338-.183.741-.275 1.21-.275.47 0 .873.092 1.21.276.338.175.616.432.836.77.22.337.382.755.484 1.254.103.49.154 1.048.154 1.671 0 .631-.051 1.192-.154 1.684-.102.49-.264.905-.484 1.243-.22.337-.498.597-.836.78-.337.176-.74.264-1.21.264Zm0-.803c.308 0 .569-.06.781-.176a1.54 1.54 0 0 0 .528-.518c.14-.22.239-.484.297-.791.066-.316.099-.668.099-1.056v-1.254c0-.382-.033-.73-.099-1.046a2.236 2.236 0 0 0-.297-.802 1.445 1.445 0 0 0-.528-.507c-.212-.124-.473-.186-.781-.186-.308 0-.568.062-.781.187a1.46 1.46 0 0 0-.528.505c-.139.22-.242.488-.308.803a5.788 5.788 0 0 0-.088 1.046v1.253c0 .39.03.741.088 1.056.066.308.169.572.308.792.14.22.316.393.528.517.213.118.473.177.781.177ZM150.358 88v-.737h1.914v-6.205h-1.914v-.737h4.752v.737h-1.914v6.204h1.914V88h-4.752ZM159.352 81.124V88h-.924v-6.876h-2.563v-.802h6.05v.802h-2.563ZM169.694 81.499h-.077v6.5h-.836v-7.677h1.309l2.618 6.434h.077v-6.434h.836v7.677h-1.309l-2.618-6.5ZM177.357 88.132c-.47 0-.873-.089-1.21-.264a2.296 2.296 0 0 1-.836-.781c-.22-.338-.382-.752-.484-1.243a8.255 8.255 0 0 1-.154-1.683c0-.624.051-1.181.154-1.672.102-.5.264-.917.484-1.255.22-.337.498-.593.836-.77.337-.183.74-.275 1.21-.275.469 0 .872.092 1.21.276.337.175.616.432.836.77.22.337.381.755.484 1.254.102.49.154 1.048.154 1.671 0 .631-.052 1.192-.154 1.684-.103.49-.264.905-.484 1.243-.22.337-.499.597-.836.78-.338.176-.741.264-1.21.264Zm0-.803c.308 0 .568-.06.781-.176.212-.125.388-.297.528-.518.139-.22.238-.484.297-.791.066-.316.099-.668.099-1.056v-1.254c0-.382-.033-.73-.099-1.046a2.274 2.274 0 0 0-.297-.802 1.46 1.46 0 0 0-.528-.507c-.213-.124-.473-.186-.781-.186-.308 0-.569.062-.781.187a1.445 1.445 0 0 0-.528.505 2.4 2.4 0 0 0-.308.803 5.7 5.7 0 0 0-.088 1.046v1.253c0 .39.029.741.088 1.056a2.4 2.4 0 0 0 .308.792c.139.22.315.393.528.517.212.118.473.177.781.177ZM181.202 88l-.605-7.678h.825l.319 4.4.165 2.32h.088l1.012-4.719h1.034l1.012 4.72h.088l.165-2.322.319-4.4h.803L185.822 88h-1.331l-.935-4.587h-.088L182.533 88h-1.331Z"/><path fill="#F2A762" d="M119.7 234.322h2.145c.939 0 1.639.322 2.101.968.462.645.693 1.602.693 2.871 0 1.268-.231 2.225-.693 2.871-.462.645-1.162.968-2.101.968H119.7v-7.678Zm2.101 6.875c.616 0 1.078-.213 1.386-.638.316-.426.473-1.027.473-1.804v-1.188c0-.778-.157-1.379-.473-1.804-.308-.426-.77-.638-1.386-.638h-1.177v6.072h1.177ZM128.111 242.132c-.469 0-.873-.088-1.21-.264a2.312 2.312 0 0 1-.836-.781c-.22-.338-.381-.752-.484-1.243a8.263 8.263 0 0 1-.154-1.683c0-.624.051-1.181.154-1.672.103-.499.264-.917.484-1.254.22-.338.499-.594.836-.77.337-.184.741-.275 1.21-.275s.873.091 1.21.275c.337.176.616.432.836.77.22.337.381.755.484 1.254.103.491.154 1.048.154 1.672 0 .63-.051 1.191-.154 1.683-.103.491-.264.905-.484 1.243-.22.337-.499.597-.836.781-.337.176-.741.264-1.21.264Zm0-.803c.308 0 .568-.059.781-.176.213-.125.389-.297.528-.517.139-.22.238-.484.297-.792a5.18 5.18 0 0 0 .099-1.056v-1.254c0-.382-.033-.73-.099-1.045a2.27 2.27 0 0 0-.297-.803 1.443 1.443 0 0 0-.528-.506c-.213-.125-.473-.187-.781-.187-.308 0-.568.062-.781.187a1.443 1.443 0 0 0-.528.506c-.139.22-.242.487-.308.803a5.692 5.692 0 0 0-.088 1.045v1.254c0 .388.029.74.088 1.056.066.308.169.572.308.792.139.22.315.392.528.517.213.117.473.176.781.176ZM138.046 242v-.737h1.914v-6.204h-1.914v-.737h4.752v.737h-1.914v6.204h1.914V242h-4.752ZM147.04 235.125V242h-.924v-6.875h-2.563v-.803h6.05v.803h-2.563ZM156.513 242v-.737h1.914v-6.204h-1.914v-.737h4.752v.737h-1.914v6.204h1.914V242h-4.752ZM162.735 242v-7.678h4.84v.803h-3.916v2.585h3.586v.803h-3.586V242h-.924ZM168.891 243.518l3.828-9.878h.792l-3.828 9.878h-.792ZM175.047 242l-.605-7.678h.825l.319 4.4.165 2.321h.088l1.012-4.719h1.034l1.012 4.719h.088l.165-2.321.319-4.4h.803l-.605 7.678h-1.331l-.935-4.587h-.088l-.935 4.587h-1.331ZM185.008 238.513h-2.992V242h-.924v-7.678h.924v3.388h2.992v-3.388h.924V242h-.924v-3.487ZM187.358 242v-7.678h4.73v.803h-3.806v2.585h3.674v.803h-3.674v2.684h3.806V242h-4.73ZM194.317 235.499h-.077V242h-.836v-7.678h1.309l2.618 6.435h.077v-6.435h.836V242h-1.309l-2.618-6.501ZM125.495 249.125V256h-.924v-6.875h-2.563v-.803h6.05v.803h-2.563ZM132.685 252.513h-2.992V256h-.924v-7.678h.924v3.388h2.992v-3.388h.924V256h-.924v-3.487ZM135.034 256v-7.678h4.73v.803h-3.806v2.585h3.674v.803h-3.674v2.684h3.806V256h-4.73ZM142.114 256h-.924v-7.678h2.794c.711 0 1.254.194 1.628.583.374.388.561.931.561 1.628 0 .623-.161 1.122-.484 1.496-.323.374-.792.59-1.408.649l1.958 3.322h-1.034l-1.87-3.278h-1.221V256Zm1.848-4.059c.389 0 .689-.096.902-.286.22-.198.33-.477.33-.836v-.572c0-.36-.11-.635-.33-.825-.213-.198-.513-.297-.902-.297h-1.848v2.816h1.848ZM147.346 256v-7.678h4.73v.803h-3.806v2.585h3.674v.803h-3.674v2.684h3.806V256h-4.73ZM155.548 247.86h1.419l-1.265 3.047h-.737l.583-3.047ZM161.945 256.132c-.689 0-1.254-.125-1.694-.374a3.503 3.503 0 0 1-1.089-.979l.671-.55c.301.374.616.652.946.836.338.183.737.275 1.199.275.558 0 .983-.129 1.276-.385.294-.257.44-.616.44-1.078 0-.374-.106-.664-.319-.869-.212-.213-.583-.363-1.111-.451l-.858-.143a3.346 3.346 0 0 1-.946-.297 2.007 2.007 0 0 1-.605-.473 1.8 1.8 0 0 1-.33-.616 2.516 2.516 0 0 1-.099-.704c0-.704.231-1.236.693-1.595.462-.36 1.086-.539 1.87-.539.616 0 1.133.102 1.551.308.426.205.767.495 1.023.869l-.649.561a2.617 2.617 0 0 0-.77-.682c-.3-.176-.689-.264-1.166-.264-.52 0-.92.11-1.199.33-.278.22-.418.55-.418.99 0 .344.103.627.308.847.213.212.591.366 1.133.462l.825.143c.374.066.69.165.946.297.257.132.462.289.616.473.162.183.275.388.341.616.066.227.099.465.099.715 0 .711-.234 1.268-.704 1.672-.462.403-1.122.605-1.98.605ZM174.741 249.125V256h-.924v-6.875h-2.563v-.803h6.05v.803h-2.563ZM178.058 256v-.737h1.914v-6.204h-1.914v-.737h4.752v.737h-1.914v6.204h1.914V256h-4.752ZM188.295 252.15v-2.431h-.088l-1.617 3.949-1.617-3.949h-.088V256h-.847v-7.678h1.188l1.353 3.388h.066l1.353-3.388h1.144V256h-.847v-3.85ZM190.436 256v-7.678h4.73v.803h-3.806v2.585h3.674v.803h-3.674v2.684h3.806V256h-4.73Z"/><path fill="#050038" fill-rule="evenodd" d="m305.929 23.657 6.364-6.364a1 1 0 0 1 1.414 0l6.364 6.364a1 1 0 0 1-1.414 1.414L314 20.414V165h-2V20.414l-4.657 4.657a1 1 0 1 1-1.414-1.414Z" clip-rule="evenodd"/><path fill="#050038" fill-rule="evenodd" d="m307.696 22.243 4.773-4.773a.75.75 0 0 1 1.061 0l4.773 4.773a.75.75 0 1 1-1.061 1.06l-3.492-3.492v290.378l3.492-3.492a.75.75 0 0 1 1.061 1.06l-4.773 4.773a.75.75 0 0 1-1.061 0l-4.773-4.773a.749.749 0 1 1 1.061-1.06l3.493 3.492V19.811l-3.493 3.492a.75.75 0 0 1-1.061-1.06Z" clip-rule="evenodd"/><path fill="#050038" fill-rule="evenodd" d="m603.757 159.696 4.773 4.773a.75.75 0 0 1 0 1.061l-4.773 4.773a.749.749 0 1 1-1.06-1.061l3.492-3.492H19.811l3.492 3.492a.75.75 0 0 1-1.06 1.061l-4.773-4.773a.75.75 0 0 1 0-1.061l4.773-4.773a.75.75 0 1 1 1.06 1.061l-3.492 3.493h586.378l-3.492-3.493a.75.75 0 0 1 1.06-1.061Z" clip-rule="evenodd"/></svg>