<svg width="20" height="16" viewBox="0 0 20 16" fill="currentColor" xmlns="http://www.w3.org/2000/svg">
<path d="M19.713 7.98779C19.713 7.79239 19.6397 7.59693 19.4443 7.40152L12.287 0.244284C12.1405 0.0977038 11.945 0 11.7008 0C11.2855 0 10.9679 0.341988 10.9679 0.757266C10.9679 1.0015 11.0656 1.1725 11.2366 1.34349L14.8519 4.93436L17.2702 7.2794L14.2412 7.1817H0.806093C0.341988 7.1817 0 7.52369 0 8.01221C0 8.47636 0.341988 8.8183 0.806093 8.8183H14.2412L17.2702 8.7206L14.8519 11.0656L11.2366 14.6565C11.0656 14.8275 10.9679 14.9985 10.9679 15.2427C10.9679 15.658 11.2855 16 11.7008 16C11.945 16 12.1405 15.9023 12.287 15.7557L19.4443 8.59848C19.6153 8.42749 19.713 8.23208 19.713 7.98779Z" fill="#050038"/>
</svg>
