<svg xmlns="http://www.w3.org/2000/svg" width="586" height="329" fill="none"><rect width="158.924" height="329" fill="#3A3A3A" rx="34"/><rect width="417.291" height="329" x="168.217" fill="#fff" rx="34"/><rect width="76.828" height="76.828" x="412.644" y="94.796" fill="#9AF" rx="10"/><rect width="36.246" height="12.082" x="23.234" y="56.692" fill="#9391A6" rx="4"/><rect width="51.116" height="12.082" x="71.562" y="56.692" fill="#9391A6" rx="4"/><rect width="112.455" height="12.082" x="23.234" y="82.715" fill="#9391A6" rx="4"/><rect width="41.822" height="12.082" x="23.234" y="108.737" fill="#9391A6" rx="4"/><rect width="76.828" height="76.828" x="305.766" y="171.935" fill="#FFD02F" rx="10"/><rect width="76.828" height="76.828" x="433.208" y="121.749" fill="#F7D0DF" rx="10"/><path fill="#090909" d="m313.074 28.625-3.554 10.409h-2.439l-3.539-10.41h2.097l2.647 8.372h.059l2.632-8.371h2.097ZM315.601 30.409c-.406 0-.743-.119-1.011-.357a1.16 1.16 0 0 1-.402-.907c0-.367.134-.67.402-.907.268-.248.605-.372 1.011-.372.406 0 .744.124 1.011.372.278.238.417.54.417.907s-.139.67-.417.907c-.267.238-.605.357-1.011.357Zm-.922 1.19h1.859v7.435h-1.859v-7.435ZM321.768 39.182c-.734 0-1.393-.124-1.978-.371-.575-.258-1.031-.615-1.368-1.071a2.826 2.826 0 0 1-.505-1.62h1.903c.01.485.193.876.55 1.174.357.287.833.431 1.428.431.476 0 .857-.094 1.145-.282.287-.189.431-.442.431-.759 0-.267-.084-.456-.253-.565a1.62 1.62 0 0 0-.639-.223l-1.725-.208c-1.477-.189-2.216-.833-2.216-1.933 0-.694.273-1.25.818-1.666.545-.426 1.284-.64 2.216-.64.922 0 1.655.19 2.2.566.546.367.868.892.967 1.576h-1.889a.907.907 0 0 0-.446-.565c-.228-.139-.51-.208-.847-.208-.367 0-.66.074-.878.223a.714.714 0 0 0-.327.625c0 .396.293.634.878.713l1.71.209c.634.079 1.174.267 1.62.565.447.297.67.778.67 1.442 0 .515-.144.971-.432 1.368-.287.387-.694.689-1.219.907-.525.208-1.13.312-1.814.312ZM333.734 31.599v7.435h-1.859v-1.458h-.015a2.51 2.51 0 0 1-.996 1.19c-.446.278-.977.416-1.591.416-.863 0-1.547-.267-2.052-.803-.496-.535-.744-1.269-.744-2.2v-4.58h1.889v4.238c0 .545.143.971.431 1.278.287.308.689.461 1.204.461.575 0 1.031-.188 1.368-.565.337-.376.506-.887.506-1.531v-3.881h1.859ZM343.409 31.599v7.435h-1.859v-1.472l-.03-.015a2.775 2.775 0 0 1-1.085 1.204c-.466.288-1.006.431-1.621.431a3.595 3.595 0 0 1-1.859-.49 3.583 3.583 0 0 1-1.308-1.383 4.17 4.17 0 0 1-.476-1.993c0-.724.159-1.378.476-1.963a3.514 3.514 0 0 1 3.167-1.903c.615 0 1.155.144 1.621.431.476.288.838.69 1.085 1.205l.03-.015v-1.472h1.859Zm-4.06 5.992c.665 0 1.21-.213 1.636-.64.426-.435.64-.98.64-1.635 0-.654-.214-1.195-.64-1.62-.426-.437-.971-.655-1.636-.655-.654 0-1.194.218-1.62.654-.427.426-.64.967-.64 1.621 0 .664.213 1.21.64 1.636.426.426.966.64 1.62.64ZM345.405 28.327h1.859v10.707h-1.859V28.327ZM350.264 30.409c-.407 0-.744-.119-1.011-.357a1.16 1.16 0 0 1-.402-.907c0-.367.134-.67.402-.907.267-.248.604-.372 1.011-.372.406 0 .743.124 1.011.372.278.238.416.54.416.907s-.138.67-.416.907c-.268.238-.605.357-1.011.357Zm-.922 1.19h1.859v7.435h-1.859v-7.435ZM358.916 37.576v1.458h-6.261v-1.25l3.792-4.728h-3.569v-1.457h5.814v1.249l-3.791 4.728h4.015ZM367.668 35.97a3.164 3.164 0 0 1-.58 1.68 3.452 3.452 0 0 1-1.383 1.13c-.575.268-1.219.402-1.933.402-.793 0-1.502-.163-2.126-.49a3.69 3.69 0 0 1-1.443-1.398c-.337-.595-.505-1.264-.505-2.008 0-.743.168-1.402.505-1.977a3.643 3.643 0 0 1 1.428-1.368c.615-.328 1.309-.491 2.082-.491.773 0 1.452.159 2.037.476a3.113 3.113 0 0 1 1.338 1.338c.308.575.451 1.244.431 2.008h-6.022c.01.713.218 1.283.625 1.71.406.416.941.624 1.606.624.565 0 1.036-.149 1.412-.446.387-.307.6-.704.64-1.19h1.888Zm-3.97-3.137c-.456 0-.853.099-1.19.297-.327.189-.58.461-.758.818h3.792a1.664 1.664 0 0 0-.699-.833c-.317-.188-.699-.282-1.145-.282ZM381.194 31.599v7.435h-1.859v-1.472l-.029-.015c-.248.515-.61.917-1.086 1.204-.466.288-1.006.431-1.621.431a3.595 3.595 0 0 1-1.859-.49 3.583 3.583 0 0 1-1.308-1.383 4.17 4.17 0 0 1-.476-1.993c0-.724.159-1.378.476-1.963a3.514 3.514 0 0 1 3.167-1.903c.615 0 1.155.144 1.621.431.476.288.838.69 1.086 1.205l.029-.015v-1.472h1.859Zm-4.06 5.992c.665 0 1.21-.213 1.636-.64.426-.435.64-.98.64-1.635 0-.654-.214-1.195-.64-1.62-.426-.437-.971-.655-1.636-.655-.654 0-1.194.218-1.62.654-.427.426-.64.967-.64 1.621 0 .664.213 1.21.64 1.636.426.426.966.64 1.62.64ZM387.56 31.45c.863 0 1.547.268 2.052.803.506.535.759 1.269.759 2.2v4.58h-1.904v-4.237c0-.546-.143-.972-.431-1.28-.287-.306-.689-.46-1.204-.46-.575 0-1.031.188-1.368.565-.337.377-.506.887-.506 1.532v3.88h-1.859V31.6h1.859v1.457h.015a2.51 2.51 0 0 1 .996-1.19c.446-.277.977-.416 1.591-.416ZM404.094 31.599v7.435h-1.858v-1.472l-.03-.015c-.248.515-.61.917-1.086 1.204-.465.288-1.006.431-1.62.431a3.592 3.592 0 0 1-1.859-.49 3.593 3.593 0 0 1-1.309-1.383 4.17 4.17 0 0 1-.476-1.993c0-.724.159-1.378.476-1.963a3.566 3.566 0 0 1 1.309-1.398 3.512 3.512 0 0 1 1.859-.505c.614 0 1.155.144 1.62.431.476.288.838.69 1.086 1.205l.03-.015v-1.472h1.858Zm-4.059 5.992c.664 0 1.209-.213 1.636-.64.426-.435.639-.98.639-1.635 0-.654-.213-1.195-.639-1.62-.427-.437-.972-.655-1.636-.655-.654 0-1.195.218-1.621.654-.426.426-.639.967-.639 1.621 0 .664.213 1.21.639 1.636.426.426.967.64 1.621.64ZM410.461 31.45c.862 0 1.546.268 2.052.803.505.535.758 1.269.758 2.2v4.58h-1.903v-4.237c0-.546-.144-.972-.431-1.28-.288-.306-.689-.46-1.205-.46-.575 0-1.031.188-1.368.565-.337.377-.505.887-.505 1.532v3.88H406V31.6h1.859v1.457h.014c.219-.516.551-.912.997-1.19.446-.277.976-.416 1.591-.416ZM418.322 39.182c-.734 0-1.393-.124-1.978-.371-.575-.258-1.031-.615-1.368-1.071-.327-.466-.496-1.006-.506-1.62h1.904c.01.485.193.876.55 1.174.357.287.833.431 1.427.431.476 0 .858-.094 1.145-.282.288-.189.432-.442.432-.759 0-.267-.085-.456-.253-.565a1.625 1.625 0 0 0-.64-.223l-1.725-.208c-1.477-.189-2.215-.833-2.215-1.933 0-.694.272-1.25.818-1.666.545-.426 1.283-.64 2.215-.64.922 0 1.656.19 2.201.566.545.367.868.892.967 1.576h-1.889a.907.907 0 0 0-.446-.565c-.228-.139-.51-.208-.848-.208-.366 0-.659.074-.877.223a.714.714 0 0 0-.327.625c0 .396.292.634.877.713l1.71.209c.635.079 1.175.267 1.621.565.446.297.669.778.669 1.442 0 .515-.143.971-.431 1.368-.287.387-.694.689-1.219.907-.526.208-1.13.312-1.814.312ZM422.284 31.599h1.933l1.606 5.442h.059l1.621-5.442h1.844l1.636 5.472h.059l1.606-5.472h1.933l-2.558 7.435h-1.858l-1.71-5.577h-.06l-1.695 5.577h-1.859l-2.557-7.435ZM443.151 35.97a3.164 3.164 0 0 1-.58 1.68 3.452 3.452 0 0 1-1.383 1.13c-.575.268-1.219.402-1.933.402-.793 0-1.502-.163-2.126-.49a3.69 3.69 0 0 1-1.443-1.398c-.337-.595-.505-1.264-.505-2.008 0-.743.168-1.402.505-1.977a3.643 3.643 0 0 1 1.428-1.368c.615-.328 1.308-.491 2.082-.491.773 0 1.452.159 2.037.476a3.113 3.113 0 0 1 1.338 1.338c.308.575.451 1.244.431 2.008h-6.022c.01.713.218 1.283.625 1.71.406.416.941.624 1.606.624.565 0 1.036-.149 1.412-.446.387-.307.6-.704.64-1.19h1.888Zm-3.97-3.137c-.456 0-.853.099-1.19.297-.327.189-.58.461-.758.818h3.792a1.664 1.664 0 0 0-.699-.833c-.317-.188-.699-.282-1.145-.282ZM448.939 31.45c.129 0 .228.005.298.015v1.844h-.387c-.793 0-1.388.248-1.784.743-.387.496-.58 1.2-.58 2.112v2.87h-1.859v-7.435h1.785v2.17l.014.016c.377-1.557 1.215-2.335 2.513-2.335Z"/><path fill="#fff" d="M31.8 31.926c0 .644-.154 1.22-.461 1.725a3.05 3.05 0 0 1-1.264 1.16c-.545.277-1.17.416-1.874.416h-1.933v3.807h-1.933v-10.41h3.866c.704 0 1.329.14 1.874.417.545.277.966.67 1.264 1.175.307.495.46 1.065.46 1.71Zm-3.822 1.62c.545 0 .977-.143 1.294-.43.327-.298.49-.695.49-1.19 0-.496-.163-.887-.49-1.175-.317-.297-.749-.446-1.294-.446h-1.71v3.242h1.71ZM34.217 30.409c-.406 0-.743-.119-1.01-.357a1.16 1.16 0 0 1-.402-.907c0-.367.134-.67.401-.907.268-.248.605-.372 1.011-.372.407 0 .744.124 1.012.372.277.238.416.54.416.907s-.139.67-.416.907c-.268.238-.605.357-1.012.357Zm-.922 1.19h1.86v7.435h-1.86v-7.435ZM40.858 39.182c-.803 0-1.517-.163-2.142-.49a3.618 3.618 0 0 1-1.442-1.368c-.347-.595-.52-1.264-.52-2.008 0-.753.173-1.422.52-2.007a3.618 3.618 0 0 1 1.442-1.368c.625-.328 1.334-.491 2.127-.491.951 0 1.764.233 2.438.699a3.267 3.267 0 0 1 1.354 1.888h-1.993a1.84 1.84 0 0 0-.729-.728 2.085 2.085 0 0 0-1.085-.283c-.635 0-1.16.213-1.576.64-.407.426-.61.976-.61 1.65 0 .664.203 1.215.61 1.65.416.427.951.64 1.606.64.614 0 1.115-.193 1.502-.58.396-.396.594-.907.594-1.532l-.014-.267h1.933c.05.773-.095 1.462-.432 2.067A3.445 3.445 0 0 1 43 38.692c-.625.327-1.338.49-2.141.49ZM46.392 28.327h1.86v6.617l.029.015 2.721-3.36h2.246l-3.153 3.687 3.316 3.748h-2.305l-2.825-3.39h-.03v3.39h-1.858V28.327ZM66.614 31.599v7.435h-1.859v-1.472l-.03-.015c-.247.515-.609.917-1.085 1.204-.466.288-1.006.431-1.62.431a3.592 3.592 0 0 1-1.86-.49 3.585 3.585 0 0 1-1.308-1.383c-.317-.595-.476-1.26-.476-1.993 0-.724.159-1.378.476-1.963a3.511 3.511 0 0 1 3.167-1.903c.615 0 1.155.144 1.621.431.476.288.838.69 1.086 1.205l.03-.015v-1.472h1.858Zm-4.06 5.992c.665 0 1.21-.213 1.636-.64.427-.435.64-.98.64-1.635 0-.654-.213-1.195-.64-1.62-.426-.437-.971-.655-1.635-.655-.655 0-1.195.218-1.621.654-.426.426-.64.967-.64 1.621 0 .664.214 1.21.64 1.636.426.426.966.64 1.62.64ZM80.497 31.599v11.3h-1.859v-5.337l-.03-.015c-.248.515-.61.917-1.085 1.204-.466.288-1.007.431-1.621.431a3.592 3.592 0 0 1-1.859-.49 3.585 3.585 0 0 1-1.308-1.383c-.318-.595-.476-1.26-.476-1.993 0-.724.158-1.378.476-1.963a3.511 3.511 0 0 1 3.167-1.903c.614 0 1.155.144 1.62.431.477.288.838.69 1.086 1.205l.03-.015.015-1.472h1.844Zm-4.06 5.992c.664 0 1.21-.213 1.636-.64.426-.435.64-.98.64-1.635 0-.654-.214-1.195-.64-1.62-.426-.437-.972-.655-1.636-.655-.654 0-1.194.218-1.62.654-.427.426-.64.967-.64 1.621 0 .664.213 1.21.64 1.636.426.426.966.64 1.62.64ZM89.496 31.599v7.435h-1.859v-1.458h-.014c-.219.516-.55.912-.997 1.19-.446.278-.976.416-1.59.416-.863 0-1.547-.267-2.053-.803-.496-.535-.743-1.269-.743-2.2v-4.58h1.888v4.238c0 .545.144.971.431 1.278.288.308.69.461 1.205.461.575 0 1.03-.188 1.368-.565.337-.376.505-.887.505-1.531v-3.881h1.86ZM98.904 35.97a3.17 3.17 0 0 1-.58 1.68 3.451 3.451 0 0 1-1.383 1.13c-.575.268-1.22.402-1.933.402-.793 0-1.502-.163-2.127-.49a3.69 3.69 0 0 1-1.442-1.398c-.337-.595-.506-1.264-.506-2.008 0-.743.169-1.402.506-1.977a3.644 3.644 0 0 1 1.428-1.368c.614-.328 1.308-.491 2.081-.491.774 0 1.453.159 2.038.476a3.116 3.116 0 0 1 1.338 1.338c.307.575.45 1.244.431 2.008h-6.022c.01.713.218 1.283.624 1.71.407.416.942.624 1.606.624.565 0 1.036-.149 1.413-.446.386-.307.6-.704.64-1.19h1.888Zm-3.97-3.137c-.457 0-.853.099-1.19.297-.327.189-.58.461-.758.818h3.791a1.661 1.661 0 0 0-.698-.833c-.318-.188-.7-.282-1.145-.282ZM103.742 39.182c-.734 0-1.393-.124-1.978-.371-.575-.258-1.031-.615-1.368-1.071-.327-.466-.496-1.006-.506-1.62h1.904c.01.485.193.876.55 1.174.357.287.833.431 1.427.431.476 0 .858-.094 1.145-.282.288-.189.432-.442.432-.759 0-.267-.085-.456-.253-.565a1.626 1.626 0 0 0-.639-.223l-1.725-.208c-1.477-.189-2.216-.833-2.216-1.933 0-.694.273-1.25.818-1.666.545-.426 1.284-.64 2.215-.64.922 0 1.656.19 2.201.566.545.367.868.892.967 1.576h-1.889a.907.907 0 0 0-.446-.565c-.228-.139-.51-.208-.847-.208-.367 0-.66.074-.878.223a.714.714 0 0 0-.327.625c0 .396.293.634.877.713l1.71.209c.635.079 1.175.267 1.621.565.446.297.669.778.669 1.442 0 .515-.143.971-.431 1.368-.287.387-.694.689-1.219.907-.525.208-1.13.312-1.814.312ZM112.4 37.576c.218 0 .451-.02.699-.06a3.04 3.04 0 0 0 .654-.192v1.56c-.218.08-.506.15-.862.21-.357.059-.694.088-1.012.088-.852 0-1.511-.243-1.977-.728-.466-.486-.699-1.145-.699-1.978v-3.33h-1.368v-1.384l.476-.03c.356-.02.619-.123.788-.312.178-.198.277-.5.297-.907l.045-1.056h1.591V31.6h2.468v1.546h-2.468v3.212c0 .813.456 1.22 1.368 1.22ZM116.061 30.409c-.407 0-.744-.119-1.011-.357a1.16 1.16 0 0 1-.402-.907c0-.367.134-.67.402-.907.267-.248.604-.372 1.011-.372.406 0 .743.124 1.011.372.278.238.416.54.416.907s-.138.67-.416.907c-.268.238-.605.357-1.011.357Zm-.922 1.19h1.859v7.435h-1.859v-7.435ZM122.716 39.182c-.793 0-1.502-.163-2.126-.49a3.804 3.804 0 0 1-1.473-1.383c-.347-.585-.52-1.25-.52-1.993 0-.743.173-1.408.52-1.992a3.698 3.698 0 0 1 1.473-1.368c.624-.338 1.333-.506 2.126-.506.793 0 1.502.168 2.126.506a3.571 3.571 0 0 1 1.473 1.368c.356.584.535 1.249.535 1.992 0 .744-.179 1.408-.535 1.993a3.671 3.671 0 0 1-1.473 1.383c-.624.327-1.333.49-2.126.49Zm0-1.576c.654 0 1.195-.213 1.621-.64.426-.435.639-.986.639-1.65 0-.664-.213-1.21-.639-1.636-.426-.436-.967-.654-1.621-.654s-1.195.218-1.621.654c-.426.427-.639.972-.639 1.636 0 .664.213 1.215.639 1.65.426.427.967.64 1.621.64ZM132.795 31.45c.862 0 1.546.268 2.052.803.505.535.758 1.269.758 2.2v4.58h-1.903v-4.237c0-.546-.144-.972-.431-1.28-.288-.306-.689-.46-1.205-.46-.575 0-1.031.188-1.368.565-.337.377-.506.887-.506 1.532v3.88h-1.858V31.6h1.858v1.457h.015c.218-.516.551-.912.997-1.19.446-.277.976-.416 1.591-.416Z"/><path fill="#7C6" fill-rule="evenodd" d="M273.159 73.097c5.657 5.16 9.782 12.576 12.137 18.998a2.323 2.323 0 1 1-4.363 1.6c-2.191-5.977-5.971-12.664-10.905-17.165-4.87-4.442-10.637-6.597-17.24-4.273-7.096 2.496-11.179 10.648-12.575 20.692-.901 6.483-.602 13.277.498 18.872 1.843 3.465 3.508 7.307 4.525 9.978.426 1.119.768 2.108.972 2.836.094.336.197.744.234 1.118v.008c.013.126.06.594-.108 1.111a2.37 2.37 0 0 1-2.982 1.538 2.49 2.49 0 0 1-.812-.441 2.974 2.974 0 0 1-.34-.325 4.798 4.798 0 0 1-.392-.509 15.513 15.513 0 0 1-.721-1.212c-.537-.98-1.267-2.439-2.217-4.459-1.064-2.261-1.935-5.008-2.576-8.046-.97-1.779-1.958-3.372-2.87-4.505-1.713-2.128-3.215-2.651-4.401-2.627-1.308.026-2.833.727-4.47 2.189-3.296 2.945-6.017 8.069-6.936 11.652-1.675 6.522-2.678 13.595-1.867 20.047.639 5.076 2.386 9.701 5.782 13.423.708.142 1.433.308 2.146.497 1.516.403 3.134.957 4.424 1.732 1.184.711 2.792 2.046 2.792 4.2 0 .723-.234 1.743-1.177 2.431-.832.607-1.741.59-2.222.535-.966-.111-1.961-.59-2.638-.953-1.489-.798-2.964-1.895-3.111-2.005a26.757 26.757 0 0 1-2.51-2.135 41.656 41.656 0 0 0-3.199-.413c-5.2.691-8.942 4.749-11.122 11.451-2.205 6.776-2.588 15.733-1.281 24.745 1.306 9.004 4.262 17.809 8.5 24.294 4.256 6.513 9.526 10.313 15.449 10.313a2.324 2.324 0 0 1 0 4.647c-8.146 0-14.659-5.255-19.339-12.418-4.699-7.192-7.833-16.685-9.208-26.169-1.375-9.475-1.031-19.194 1.46-26.85 2.433-7.479 7.133-13.493 14.725-14.591-2.284-3.715-3.543-7.874-4.081-12.154-.914-7.267.229-14.981 1.976-21.782 1.108-4.317 4.246-10.303 8.34-13.961 2.058-1.839 4.61-3.314 7.474-3.371 2.206-.045 4.291.754 6.182 2.357-.186-3.851-.037-7.838.498-11.688 1.452-10.446 5.939-21.024 15.636-24.436 8.683-3.055 16.192.006 21.913 5.224ZM226.3 160.274c-.001 0-.005-.005-.01-.016l.01.016Z" clip-rule="evenodd"/><path fill="#4262FF" d="m267.661 230.486 9.016 17.006 17.006 9.016-17.006 9.017-9.016 17.006-9.017-17.006-17.006-9.017 17.006-9.016 9.017-17.006Z"/><path fill="#4262FF" fill-rule="evenodd" d="M267.661 227.698c1.032 0 1.98.57 2.463 1.482l8.616 16.25 16.249 8.615a2.789 2.789 0 0 1 0 4.927l-16.249 8.615-8.616 16.25a2.787 2.787 0 0 1-4.927 0l-8.615-16.25-16.25-8.615a2.788 2.788 0 0 1 0-4.927l16.25-8.615 8.615-16.25a2.79 2.79 0 0 1 2.464-1.482Zm-9.017 19.794-17.006 9.016 17.006 9.017 9.017 17.006 9.016-17.006 17.006-9.017-17.006-9.016-9.016-17.006-9.017 17.006Z" clip-rule="evenodd"/><path fill="#E15454" d="m343.87 230.486 11.043 19.647 11.493 19.387-22.536-.26-22.536.26 11.493-19.387 11.043-19.647Z"/><path fill="#E15454" fill-rule="evenodd" d="M343.87 227.698c1.008 0 1.937.543 2.431 1.422l11.027 19.619 11.477 19.359a2.787 2.787 0 0 1-2.431 4.21l-22.504-.26-22.504.26a2.79 2.79 0 0 1-2.43-4.21l11.477-19.359 11.027-19.619a2.786 2.786 0 0 1 2.43-1.422Zm-11.042 22.435-11.494 19.387 22.536-.26 22.536.26-11.493-19.387-11.043-19.647-11.042 19.647Z" clip-rule="evenodd"/><path fill="#FFD02F" fill-rule="evenodd" d="M497.808 251.536a2.323 2.323 0 0 1 1.039 3.117c-7.099 14.198-15.493 29.43-34.358 32.125-14.704 2.1-28.818 1.615-40.215-9.782a2.322 2.322 0 1 1 3.286-3.286c9.794 9.794 21.971 10.511 36.272 8.468 16.194-2.314 23.649-15.184 30.859-29.603a2.323 2.323 0 0 1 3.117-1.039ZM446.102 238.409a2.323 2.323 0 0 1 2.323 2.323c0 5.625.576 11.013 2.296 16.173a2.323 2.323 0 1 1-4.408 1.47c-1.93-5.789-2.535-11.712-2.535-17.643a2.324 2.324 0 0 1 2.324-2.323ZM463.01 235.188a2.323 2.323 0 0 1 2.323 2.323v14.493a2.323 2.323 0 1 1-4.646 0v-14.493a2.323 2.323 0 0 1 2.323-2.323Z" clip-rule="evenodd"/></svg>