<svg xmlns="http://www.w3.org/2000/svg" fill="none" viewBox="0 0 51 53">
  <path fill="#fff" d="M21.325 15.549c2.057 3.272 1.675 4.893 3.671 7.998 2.186 1.889 4.266 2.309 4.666 2.84.405.71-.913 2.028-1.623 2.535.245 2.538.175 4.135-1.975 10.933-3.268 1.62-5.6.91-7.831.91-.124.275-.688 8.042-.688 8.076-.913 1.054-2.702 2.17-4.97 2.17-2.666 0-4.969-1.116-5.882-2.17V37.925c-1.155-3.073-3.143-4.209-4.38-8.507-1.149-3.998-2.801-10.4 1.358-14.739 1.854-1.934 6.631-3.18 10.893-2.767 3.013.293 5.645 1.86 6.761 3.637z"/>
  <path fill="#050038" fill-rule="evenodd" d="M8.463 13.384c-1.884.483-3.331 1.217-4.07 1.987-1.84 1.92-2.426 4.315-2.392 6.791.035 2.495.699 4.98 1.274 6.98.58 2.016 1.328 3.28 2.093 4.438.111.168.225.337.34.507.672 1 1.385 2.06 1.921 3.486a1 1 0 01.064.352v10.504c.36.317.921.669 1.656.964a8.76 8.76 0 003.226.618c1.772 0 3.194-.8 3.997-1.594l.066-.888c.055-.738.13-1.723.208-2.715.078-.991.16-1.994.231-2.767.036-.386.069-.721.097-.971.014-.124.028-.236.042-.325.006-.045.015-.093.024-.14v-.004c.006-.025.028-.136.08-.25a1 1 0 01.913-.593c.605 0 1.176.04 1.736.08 1.647.115 3.202.223 5.272-.706.986-3.146 1.489-5.08 1.722-6.508.237-1.453.198-2.394.08-3.611a1 1 0 01.415-.91 5.31 5.31 0 001.016-.985c.068-.09.122-.17.163-.238l-.015-.008a16.809 16.809 0 00-.485-.231c-.162-.075-.346-.16-.573-.27-.883-.427-2.036-1.049-3.221-2.073a1.003 1.003 0 01-.188-.216c-1.063-1.653-1.498-2.927-1.913-4.14l-.005-.014c-.405-1.186-.794-2.319-1.758-3.853-.917-1.457-3.233-2.903-6.012-3.173-2.008-.195-4.15.001-6.004.476zm20.276 13.28v-.002.003zM7.967 11.447c2.064-.529 4.44-.749 6.693-.53 3.249.316 6.195 2.005 7.512 4.1 1.091 1.736 1.54 3.049 1.957 4.267v.003c.396 1.155.758 2.212 1.63 3.597.962.81 1.9 1.317 2.675 1.692.157.076.33.156.498.235.22.102.43.2.589.28.156.08.32.167.468.266.142.094.324.232.472.429a.998.998 0 01.069.105c.298.522.222 1.065.097 1.438-.127.377-.347.724-.564 1.008-.291.383-.649.744-.98 1.032.086 1.102.09 2.138-.146 3.583-.268 1.642-.843 3.8-1.92 7.205a1 1 0 01-.51.594c-2.796 1.386-5.103 1.216-6.92 1.083-.163-.013-.322-.024-.477-.035l-.041.43c-.07.761-.151 1.754-.23 2.743a612.243 612.243 0 00-.272 3.596l-.018.25-.005.065v-.042a1 1 0 01-.243.654c-1.08 1.247-3.133 2.516-5.725 2.516-1.47 0-2.839-.307-3.972-.762-1.116-.448-2.074-1.069-2.667-1.754a1 1 0 01-.244-.654V38.11c-.438-1.107-.99-1.928-1.628-2.88l-.366-.55c-.827-1.251-1.69-2.704-2.346-4.986-.575-2-1.312-4.715-1.351-7.505-.04-2.809.629-5.784 2.947-8.203 1.116-1.163 2.984-2.02 5.018-2.54z" clip-rule="evenodd"/>
  <path fill="#050038" fill-rule="evenodd" d="M21.478 29.502a1 1 0 011.381.305c.021.033.13.16.417.325.271.156.646.313 1.113.44.933.256 2.17.374 3.555.179a1 1 0 11.28 1.98c-1.65.233-3.162.099-4.362-.229a6.79 6.79 0 01-1.583-.636c-.43-.247-.843-.571-1.105-.983a1 1 0 01.304-1.38z" clip-rule="evenodd"/>
  <path fill="#FFBFBF" d="M43.276 3.594c1.436 2.284 1.17 3.416 2.563 5.584 1.526 1.318 2.978 1.611 3.257 1.982.283.496-.637 1.416-1.133 1.77.171 1.772.122 2.887-1.379 7.633-2.281 1.13-3.91.635-5.467.635-.086.192-.48 5.614-.48 5.638-.637.736-1.886 1.515-3.47 1.515-1.861 0-3.468-.78-4.106-1.515v-7.62c-.807-2.146-2.194-2.94-3.057-5.94-.803-2.79-1.956-7.26.947-10.289 1.295-1.35 4.63-2.22 7.605-1.932 2.104.205 3.94 1.3 4.72 2.54z"/>
  <path fill="#050038" fill-rule="evenodd" d="M34.371 2.375c-1.292.332-2.239.825-2.698 1.304-1.212 1.265-1.609 2.85-1.585 4.528.023 1.697.476 3.398.877 4.793.393 1.367.898 2.22 1.423 3.015l.233.348c.47.698.988 1.469 1.376 2.5.043.113.064.232.064.352v7.191c.221.172.545.366.967.535.604.243 1.345.41 2.14.41a3.75 3.75 0 002.497-.95l.038-.503c.038-.516.09-1.204.145-1.897.055-.692.112-1.394.162-1.936.025-.27.048-.506.068-.684a6.846 6.846 0 01.05-.352l.001-.002a1 1 0 01.988-.83c.455 0 .872.03 1.272.057 1.096.076 2.068.144 3.374-.413.66-2.116.995-3.415 1.15-4.371.16-.98.135-1.61.055-2.443a1 1 0 01.414-.91c.146-.105.36-.294.537-.495l-.01-.004c-.11-.051-.239-.111-.41-.193a10.292 10.292 0 01-2.314-1.49 1 1 0 01-.187-.216c-.762-1.185-1.076-2.103-1.366-2.953l-.005-.013c-.281-.823-.544-1.587-1.198-2.627-.579-.92-2.101-1.894-3.97-2.075a12.201 12.201 0 00-4.088.324zM33.875.438A14.2 14.2 0 0138.652.06c2.34.227 4.49 1.443 5.47 3.002.781 1.242 1.104 2.185 1.396 3.04l.002.004c.27.79.51 1.492 1.082 2.408.632.525 1.249.86 1.768 1.11l.335.158c.159.074.317.148.428.204.114.057.24.125.358.204.112.074.271.193.404.37a.998.998 0 01.069.104c.268.469.194.946.092 1.25-.103.308-.278.58-.44.791-.184.241-.401.47-.613.663.051.733.044 1.451-.115 2.424-.191 1.17-.598 2.693-1.35 5.072a1 1 0 01-.51.595c-2.035 1.008-3.751.88-5.02.785h-.006v.003c-.049.53-.106 1.221-.16 1.912a417.44 417.44 0 00-.19 2.508l-.013.174-.003.046v-.017a1 1 0 01-.243.62c-.804.929-2.318 1.86-4.225 1.86a7.812 7.812 0 01-2.885-.553c-.808-.324-1.522-.78-1.978-1.307a1 1 0 01-.244-.654v-7.433c-.289-.713-.648-1.248-1.082-1.896a62.75 62.75 0 01-.26-.39c-.587-.888-1.207-1.93-1.676-3.564-.402-1.396-.927-3.326-.955-5.318-.028-2.012.45-4.176 2.142-5.94.835-.871 2.203-1.488 3.645-1.857z" clip-rule="evenodd"/>
  <path fill="#050038" fill-rule="evenodd" d="M34.775 5.876a1 1 0 011.387-.278c.716.478 1.564.963 2.244 1.334a45.626 45.626 0 001.076.568l.063.032.016.008.003.002a1.002 1.002 0 01.154 1.695l-.003-.03a2.39 2.39 0 00-.592-.145l-.005.017.6.158-.005.003-.016.012-.063.048-.236.18c-.2.154-.477.37-.784.615-.625.5-1.34 1.097-1.798 1.556a1 1 0 01-1.415-1.414c.17-.17.366-.352.572-.536-8.961-.02-17.7 3.557-23.389 10.434a33.62 33.62 0 001.586-.59 1 1 0 11.743 1.857c-1.282.512-2.397.882-3.227 1.099-.41.107-.778.184-1.073.219-.143.016-.31.028-.475.014a1.354 1.354 0 01-.328-.067 1.097 1.097 0 01-.512-.365 1.302 1.302 0 01-.24-.577 2.804 2.804 0 01-.035-.401c-.007-.265.01-.595.044-.974.071-.763.226-1.805.482-3.082a1 1 0 111.96.393c-.058.292-.11.57-.157.832 6.066-7.092 15.147-10.748 24.387-10.792a22.71 22.71 0 01-.687-.439 1 1 0 01-.277-1.386zm4.163 3.533a.905.905 0 00.062.092l-.062-.092z" clip-rule="evenodd"/>
</svg>
