<svg xmlns="http://www.w3.org/2000/svg" width="459" height="313" fill="none"><g filter="url(#a)" opacity=".5"><path fill="#000" d="m174.126 16.63 76.856.79-1.101 82.57-75.218 1.997-.537-85.356Z"/></g><g filter="url(#b)" opacity=".5"><path fill="#000" fill-opacity=".1" d="m173.969 20.122 76.856.789-1.101 82.571-75.218 1.996-.537-85.356Z"/></g><path fill="#DE98BA" d="m164.904 7 94.204.875.879 94.111-94.424-.219L164.904 7Z"/><g filter="url(#c)" opacity=".5"><path fill="#000" d="m181.932 26.135 78.228.802-1.121 83.994-76.56 2.031-.547-86.827Z"/></g><g filter="url(#d)" opacity=".5"><path fill="#000" fill-opacity=".1" d="m181.771 29.688 78.228.802-1.121 83.994-76.56 2.031-.547-86.828Z"/></g><path fill="#DE98BA" d="m172.545 16.338 95.886.89.894 95.733-96.11-.222-.67-96.401Z"/><g filter="url(#e)" opacity=".5"><path fill="#000" d="m190.422 37.005 78.229.788-1.122 82.571-76.56 1.997-.547-85.356Z"/></g><g filter="url(#f)" opacity=".5"><path fill="#000" fill-opacity=".1" d="m190.26 40.497 78.229.789-1.122 82.571-76.56 1.996-.547-85.356Z"/></g><path fill="#DE98BA" d="m181.035 27.375 95.886.875.894 94.111-96.109-.219-.671-94.767Z"/><g filter="url(#g)" opacity=".5"><path fill="#000" d="m198.828 45.66 77.543.802-1.112 83.995-75.889 2.031-.542-86.828Z"/></g><g filter="url(#h)" opacity=".5"><path fill="#000" fill-opacity=".1" d="m198.669 49.213 77.542.802-1.111 83.995-75.889 2.031-.542-86.828Z"/></g><path fill="#DE98BA" d="m189.523 35.864 95.045.89.887 95.734-95.267-.223-.665-96.4Z"/><g filter="url(#i)" opacity=".5"><path fill="#000" d="m208.085 55.682 76.856.788-1.101 82.571-75.218 1.997-.537-85.356Z"/></g><g filter="url(#j)" opacity=".5"><path fill="#000" fill-opacity=".1" d="m207.927 59.174 76.856.788-1.101 82.571-75.218 1.997-.537-85.356Z"/></g><path fill="#DE98BA" d="m198.862 46.052 94.204.875.879 94.111-94.424-.219-.659-94.767Z"/><g filter="url(#k)" opacity=".5"><path fill="#000" d="m176.674 171.14 76.856.788-1.101 82.571-75.218 1.997-.537-85.356Z"/></g><g filter="url(#l)" opacity=".5"><path fill="#000" fill-opacity=".1" d="m176.515 174.631 76.856.788-1.102 82.571-75.217 1.997-.537-85.356Z"/></g><path fill="#CDDE6B" d="m167.451 161.509 94.204.875.878 94.111-94.423-.219-.659-94.767Z"/><g filter="url(#m)" opacity=".5"><path fill="#000" d="m184.479 180.644 78.229.802-1.121 83.994-76.56 2.031-.548-86.827Z"/></g><g filter="url(#n)" opacity=".5"><path fill="#000" fill-opacity=".1" d="m184.317 184.195 78.229.802-1.121 83.995-76.561 2.031-.547-86.828Z"/></g><path fill="#CDDE6B" d="m175.092 170.848 95.886.89.894 95.733-96.11-.222-.67-96.401Z"/><g filter="url(#o)" opacity=".5"><path fill="#000" d="m192.969 191.514 78.228.788-1.121 82.571-76.56 1.997-.547-85.356Z"/></g><g filter="url(#p)" opacity=".5"><path fill="#000" fill-opacity=".1" d="m192.807 195.006 78.228.788-1.121 82.571-76.56 1.997-.547-85.356Z"/></g><path fill="#CDDE6B" d="m183.581 181.884 95.886.875.894 94.111-96.109-.219-.671-94.767Z"/><g filter="url(#q)" opacity=".5"><path fill="#000" d="m201.375 200.169 77.543.802-1.112 83.995-75.889 2.031-.542-86.828Z"/></g><g filter="url(#r)" opacity=".5"><path fill="#000" fill-opacity=".1" d="m201.215 203.721 77.542.802-1.111 83.994-75.889 2.031-.542-86.827Z"/></g><path fill="#CDDE6B" d="m192.07 190.373 95.045.891.886 95.733-95.266-.223-.665-96.401Z"/><g filter="url(#s)" opacity=".5"><path fill="#000" d="m210.632 210.19 76.856.789-1.101 82.571-75.218 1.996-.537-85.356Z"/></g><g filter="url(#t)" opacity=".5"><path fill="#000" fill-opacity=".1" d="m210.473 213.683 76.856.788-1.102 82.571-75.217 1.997-.537-85.356Z"/></g><path fill="#CDDE6B" d="m201.409 200.561 94.204.875.878 94.11-94.423-.218-.659-94.767Z"/><g filter="url(#u)" opacity=".5"><path fill="#000" d="m331.183 16.63 76.856.79-1.102 82.57-75.217 1.997-.537-85.356Z"/></g><g filter="url(#v)" opacity=".5"><path fill="#000" fill-opacity=".1" d="m331.024 20.122 76.857.789-1.102 82.571-75.217 1.996-.538-85.356Z"/></g><path fill="#AFCCF1" d="m321.96 7 94.204.875.878 94.111-94.423-.219L321.96 7Z"/><g filter="url(#w)" opacity=".5"><path fill="#000" d="m338.987 26.135 78.229.802-1.121 83.994-76.561 2.031-.547-86.827Z"/></g><g filter="url(#x)" opacity=".5"><path fill="#000" fill-opacity=".1" d="m338.826 29.688 78.229.802-1.121 83.994-76.561 2.031-.547-86.828Z"/></g><path fill="#AFCCF1" d="m329.601 16.338 95.886.89.894 95.733-96.11-.222-.67-96.401Z"/><g filter="url(#y)" opacity=".5"><path fill="#000" d="m347.478 37.005 78.228.788-1.121 82.571-76.56 1.997-.547-85.356Z"/></g><g filter="url(#z)" opacity=".5"><path fill="#000" fill-opacity=".1" d="m347.315 40.497 78.229.789-1.121 82.571-76.561 1.996-.547-85.356Z"/></g><path fill="#AFCCF1" d="m338.09 27.375 95.886.875.894 94.111-96.11-.219-.67-94.767Z"/><g filter="url(#A)" opacity=".5"><path fill="#000" d="m355.884 45.66 77.542.802-1.111 83.995-75.889 2.031-.542-86.828Z"/></g><g filter="url(#B)" opacity=".5"><path fill="#000" fill-opacity=".1" d="m355.724 49.213 77.542.802-1.111 83.995-75.889 2.031-.542-86.828Z"/></g><path fill="#AFCCF1" d="m346.579 35.864 95.045.89.886 95.734-95.266-.223-.665-96.4Z"/><g filter="url(#C)" opacity=".5"><path fill="#000" d="m365.141 55.682 76.856.788-1.102 82.571-75.217 1.997-.537-85.356Z"/></g><g filter="url(#D)" opacity=".5"><path fill="#000" fill-opacity=".1" d="m364.981 59.174 76.857.788-1.102 82.571-75.217 1.997-.538-85.356Z"/></g><path fill="#AFCCF1" d="m355.918 46.052 94.204.875.878 94.111-94.423-.219-.659-94.767Z"/><g filter="url(#E)" opacity=".5"><path fill="#000" d="m322.692 171.987 76.857.789-1.102 82.571-75.217 1.996-.538-85.356Z"/></g><g filter="url(#F)" opacity=".5"><path fill="#000" fill-opacity=".1" d="m322.535 175.479 76.856.789-1.101 82.571-75.217 1.996-.538-85.356Z"/></g><path fill="#EFD251" d="m313.471 162.358 94.204.876.878 94.11-94.424-.219-.658-94.767Z"/><g filter="url(#G)" opacity=".5"><path fill="#000" d="m330.498 181.492 78.229.802-1.121 83.995-76.561 2.031-.547-86.828Z"/></g><g filter="url(#H)" opacity=".5"><path fill="#000" fill-opacity=".1" d="m330.337 185.045 78.229.802-1.122 83.995-76.56 2.031-.547-86.828Z"/></g><path fill="#EFD251" d="m321.11 171.696 95.886.891.894 95.733-96.109-.223-.671-96.401Z"/><g filter="url(#I)" opacity=".5"><path fill="#000" d="m338.987 192.362 78.229.789-1.121 82.571-76.561 1.996-.547-85.356Z"/></g><g filter="url(#J)" opacity=".5"><path fill="#000" fill-opacity=".1" d="m338.826 195.854 78.229.789-1.121 82.571-76.561 1.996-.547-85.356Z"/></g><path fill="#EFD251" d="m329.601 182.732 95.886.876.894 94.11-96.11-.219-.67-94.767Z"/><g filter="url(#K)" opacity=".5"><path fill="#000" d="m347.395 201.019 77.542.802-1.111 83.994-75.889 2.031-.542-86.827Z"/></g><g filter="url(#L)" opacity=".5"><path fill="#000" fill-opacity=".1" d="m347.234 204.57 77.543.802-1.111 83.995-75.889 2.031-.543-86.828Z"/></g><path fill="#EFD251" d="m338.09 191.222 95.045.89.886 95.733-95.267-.222-.664-96.401Z"/><g filter="url(#M)" opacity=".5"><path fill="#000" d="m356.65 211.039 76.857.789-1.102 82.571-75.217 1.996-.538-85.356Z"/></g><g filter="url(#N)" opacity=".5"><path fill="#000" fill-opacity=".1" d="m356.492 214.532 76.856.789-1.101 82.571-75.217 1.996-.538-85.356Z"/></g><path fill="#EFD251" d="m347.429 201.409 94.204.876.878 94.11-94.424-.219-.658-94.767Z"/><g filter="url(#O)" opacity=".5"><path fill="#000" d="m17.071 16.63 76.857.79-1.102 82.57-75.217 1.997-.538-85.356Z"/></g><g filter="url(#P)" opacity=".5"><path fill="#000" fill-opacity=".1" d="m16.913 20.122 76.856.789-1.101 82.571-75.218 1.996-.537-85.356Z"/></g><path fill="#B68AC3" d="m7.85 7 94.203.875.879 94.111-94.424-.219L7.85 7Z"/><g filter="url(#Q)" opacity=".5"><path fill="#000" d="m24.877 26.135 78.229.802-1.121 83.994-76.561 2.031-.547-86.827Z"/></g><g filter="url(#R)" opacity=".5"><path fill="#000" fill-opacity=".1" d="m24.715 29.688 78.229.802-1.122 83.994-76.56 2.031-.547-86.828Z"/></g><path fill="#B68AC3" d="m15.49 16.338 95.885.89.894 95.733-96.11-.222-.67-96.401Z"/><g filter="url(#S)" opacity=".5"><path fill="#000" d="m33.366 37.005 78.229.788-1.121 82.571-76.56 1.997-.548-85.356Z"/></g><g filter="url(#T)" opacity=".5"><path fill="#000" fill-opacity=".1" d="m33.204 40.497 78.229.789-1.121 82.571-76.56 1.996-.548-85.356Z"/></g><path fill="#B68AC3" d="m23.98 27.375 95.886.875.894 94.111-96.11-.219-.67-94.767Z"/><g filter="url(#U)" opacity=".5"><path fill="#000" d="m41.773 45.66 77.542.802-1.111 83.995-75.89 2.031-.541-86.828Z"/></g><g filter="url(#V)" opacity=".5"><path fill="#000" fill-opacity=".1" d="m41.613 49.213 77.543.802-1.112 83.995-75.888 2.031-.543-86.828Z"/></g><path fill="#B68AC3" d="m32.469 35.864 95.045.89.886 95.734-95.267-.223-.664-96.4Z"/><g filter="url(#W)" opacity=".5"><path fill="#000" d="m51.03 55.682 76.856.788-1.102 82.571-75.217 1.997-.538-85.356Z"/></g><g filter="url(#X)" opacity=".5"><path fill="#000" fill-opacity=".1" d="m50.871 59.174 76.856.788-1.101 82.571-75.217 1.997-.538-85.356Z"/></g><path fill="#B68AC3" d="m41.807 46.052 94.203.875.879 94.111-94.424-.219-.658-94.767Z"/><g filter="url(#Y)" opacity=".5"><path fill="#000" d="m16.222 171.987 76.856.789-1.102 82.571-75.217 1.996-.537-85.356Z"/></g><g filter="url(#Z)" opacity=".5"><path fill="#000" fill-opacity=".1" d="m16.064 175.479 76.857.789-1.102 82.571-75.217 1.996-.538-85.356Z"/></g><path fill="#85C7C2" d="m7 162.358 94.204.876.878 94.11-94.423-.219L7 162.358Z"/><g filter="url(#aa)" opacity=".5"><path fill="#000" d="m24.027 181.492 78.229.802-1.121 83.995-76.56 2.031-.548-86.828Z"/></g><g filter="url(#ab)" opacity=".5"><path fill="#000" fill-opacity=".1" d="m23.866 185.045 78.229.802-1.121 83.995-76.56 2.031-.548-86.828Z"/></g><path fill="#85C7C2" d="m14.64 171.696 95.886.891.894 95.733-96.11-.223-.67-96.401Z"/><g filter="url(#ac)" opacity=".5"><path fill="#000" d="m32.518 192.362 78.228.789-1.121 82.571-76.56 1.996-.547-85.356Z"/></g><g filter="url(#ad)" opacity=".5"><path fill="#000" fill-opacity=".1" d="m32.355 195.854 78.229.789-1.121 82.571-76.56 1.996-.547-85.356Z"/></g><path fill="#85C7C2" d="m23.13 182.732 95.886.876.894 94.11-96.11-.219-.67-94.767Z"/><g filter="url(#ae)" opacity=".5"><path fill="#000" d="m40.924 201.019 77.542.802-1.111 83.994-75.889 2.031-.542-86.827Z"/></g><g filter="url(#af)" opacity=".5"><path fill="#000" fill-opacity=".1" d="m40.764 204.57 77.542.802-1.111 83.995-75.89 2.031-.541-86.828Z"/></g><path fill="#85C7C2" d="m31.62 191.222 95.044.89.886 95.733-95.266-.222-.665-96.401Z"/><g filter="url(#ag)" opacity=".5"><path fill="#000" d="m50.18 211.039 76.857.789-1.102 82.571-75.217 1.996-.537-85.356Z"/></g><g filter="url(#ah)" opacity=".5"><path fill="#000" fill-opacity=".1" d="m50.023 214.532 76.856.789-1.102 82.571-75.217 1.996-.538-85.356Z"/></g><path fill="#85C7C2" d="m40.958 201.409 94.204.876.878 94.11-94.423-.219-.659-94.767Z"/><defs><filter id="a" width="109.171" height="117.671" x="157.969" y=".474" color-interpolation-filters="sRGB" filterUnits="userSpaceOnUse"><feFlood flood-opacity="0" result="BackgroundImageFix"/><feBlend in="SourceGraphic" in2="BackgroundImageFix" result="shape"/><feGaussianBlur result="effect1_foregroundBlur_5431_24672" stdDeviation="8.079"/></filter><filter id="b" width="84.856" height="93.356" x="169.969" y="16.122" color-interpolation-filters="sRGB" filterUnits="userSpaceOnUse"><feFlood flood-opacity="0" result="BackgroundImageFix"/><feBlend in="SourceGraphic" in2="BackgroundImageFix" result="shape"/><feGaussianBlur result="effect1_foregroundBlur_5431_24672" stdDeviation="2"/></filter><filter id="c" width="110.543" height="119.142" x="165.775" y="9.978" color-interpolation-filters="sRGB" filterUnits="userSpaceOnUse"><feFlood flood-opacity="0" result="BackgroundImageFix"/><feBlend in="SourceGraphic" in2="BackgroundImageFix" result="shape"/><feGaussianBlur result="effect1_foregroundBlur_5431_24672" stdDeviation="8.079"/></filter><filter id="d" width="86.228" height="94.828" x="177.771" y="25.688" color-interpolation-filters="sRGB" filterUnits="userSpaceOnUse"><feFlood flood-opacity="0" result="BackgroundImageFix"/><feBlend in="SourceGraphic" in2="BackgroundImageFix" result="shape"/><feGaussianBlur result="effect1_foregroundBlur_5431_24672" stdDeviation="2"/></filter><filter id="e" width="110.543" height="117.671" x="174.265" y="20.848" color-interpolation-filters="sRGB" filterUnits="userSpaceOnUse"><feFlood flood-opacity="0" result="BackgroundImageFix"/><feBlend in="SourceGraphic" in2="BackgroundImageFix" result="shape"/><feGaussianBlur result="effect1_foregroundBlur_5431_24672" stdDeviation="8.079"/></filter><filter id="f" width="86.228" height="93.356" x="186.26" y="36.497" color-interpolation-filters="sRGB" filterUnits="userSpaceOnUse"><feFlood flood-opacity="0" result="BackgroundImageFix"/><feBlend in="SourceGraphic" in2="BackgroundImageFix" result="shape"/><feGaussianBlur result="effect1_foregroundBlur_5431_24672" stdDeviation="2"/></filter><filter id="g" width="109.857" height="119.142" x="182.671" y="29.503" color-interpolation-filters="sRGB" filterUnits="userSpaceOnUse"><feFlood flood-opacity="0" result="BackgroundImageFix"/><feBlend in="SourceGraphic" in2="BackgroundImageFix" result="shape"/><feGaussianBlur result="effect1_foregroundBlur_5431_24672" stdDeviation="8.079"/></filter><filter id="h" width="85.543" height="94.828" x="194.669" y="45.213" color-interpolation-filters="sRGB" filterUnits="userSpaceOnUse"><feFlood flood-opacity="0" result="BackgroundImageFix"/><feBlend in="SourceGraphic" in2="BackgroundImageFix" result="shape"/><feGaussianBlur result="effect1_foregroundBlur_5431_24672" stdDeviation="2"/></filter><filter id="i" width="109.171" height="117.671" x="191.928" y="39.525" color-interpolation-filters="sRGB" filterUnits="userSpaceOnUse"><feFlood flood-opacity="0" result="BackgroundImageFix"/><feBlend in="SourceGraphic" in2="BackgroundImageFix" result="shape"/><feGaussianBlur result="effect1_foregroundBlur_5431_24672" stdDeviation="8.079"/></filter><filter id="j" width="84.856" height="93.356" x="203.927" y="55.174" color-interpolation-filters="sRGB" filterUnits="userSpaceOnUse"><feFlood flood-opacity="0" result="BackgroundImageFix"/><feBlend in="SourceGraphic" in2="BackgroundImageFix" result="shape"/><feGaussianBlur result="effect1_foregroundBlur_5431_24672" stdDeviation="2"/></filter><filter id="k" width="109.171" height="117.671" x="160.517" y="154.983" color-interpolation-filters="sRGB" filterUnits="userSpaceOnUse"><feFlood flood-opacity="0" result="BackgroundImageFix"/><feBlend in="SourceGraphic" in2="BackgroundImageFix" result="shape"/><feGaussianBlur result="effect1_foregroundBlur_5431_24672" stdDeviation="8.079"/></filter><filter id="l" width="84.856" height="93.356" x="172.515" y="170.631" color-interpolation-filters="sRGB" filterUnits="userSpaceOnUse"><feFlood flood-opacity="0" result="BackgroundImageFix"/><feBlend in="SourceGraphic" in2="BackgroundImageFix" result="shape"/><feGaussianBlur result="effect1_foregroundBlur_5431_24672" stdDeviation="2"/></filter><filter id="m" width="110.543" height="119.142" x="168.322" y="164.487" color-interpolation-filters="sRGB" filterUnits="userSpaceOnUse"><feFlood flood-opacity="0" result="BackgroundImageFix"/><feBlend in="SourceGraphic" in2="BackgroundImageFix" result="shape"/><feGaussianBlur result="effect1_foregroundBlur_5431_24672" stdDeviation="8.079"/></filter><filter id="n" width="86.228" height="94.828" x="180.317" y="180.195" color-interpolation-filters="sRGB" filterUnits="userSpaceOnUse"><feFlood flood-opacity="0" result="BackgroundImageFix"/><feBlend in="SourceGraphic" in2="BackgroundImageFix" result="shape"/><feGaussianBlur result="effect1_foregroundBlur_5431_24672" stdDeviation="2"/></filter><filter id="o" width="110.543" height="117.671" x="176.812" y="175.357" color-interpolation-filters="sRGB" filterUnits="userSpaceOnUse"><feFlood flood-opacity="0" result="BackgroundImageFix"/><feBlend in="SourceGraphic" in2="BackgroundImageFix" result="shape"/><feGaussianBlur result="effect1_foregroundBlur_5431_24672" stdDeviation="8.079"/></filter><filter id="p" width="86.228" height="93.356" x="188.807" y="191.006" color-interpolation-filters="sRGB" filterUnits="userSpaceOnUse"><feFlood flood-opacity="0" result="BackgroundImageFix"/><feBlend in="SourceGraphic" in2="BackgroundImageFix" result="shape"/><feGaussianBlur result="effect1_foregroundBlur_5431_24672" stdDeviation="2"/></filter><filter id="q" width="109.857" height="119.142" x="185.218" y="184.012" color-interpolation-filters="sRGB" filterUnits="userSpaceOnUse"><feFlood flood-opacity="0" result="BackgroundImageFix"/><feBlend in="SourceGraphic" in2="BackgroundImageFix" result="shape"/><feGaussianBlur result="effect1_foregroundBlur_5431_24672" stdDeviation="8.079"/></filter><filter id="r" width="85.543" height="94.828" x="197.215" y="199.721" color-interpolation-filters="sRGB" filterUnits="userSpaceOnUse"><feFlood flood-opacity="0" result="BackgroundImageFix"/><feBlend in="SourceGraphic" in2="BackgroundImageFix" result="shape"/><feGaussianBlur result="effect1_foregroundBlur_5431_24672" stdDeviation="2"/></filter><filter id="s" width="109.171" height="117.671" x="194.475" y="194.033" color-interpolation-filters="sRGB" filterUnits="userSpaceOnUse"><feFlood flood-opacity="0" result="BackgroundImageFix"/><feBlend in="SourceGraphic" in2="BackgroundImageFix" result="shape"/><feGaussianBlur result="effect1_foregroundBlur_5431_24672" stdDeviation="8.079"/></filter><filter id="t" width="84.856" height="93.356" x="206.473" y="209.683" color-interpolation-filters="sRGB" filterUnits="userSpaceOnUse"><feFlood flood-opacity="0" result="BackgroundImageFix"/><feBlend in="SourceGraphic" in2="BackgroundImageFix" result="shape"/><feGaussianBlur result="effect1_foregroundBlur_5431_24672" stdDeviation="2"/></filter><filter id="u" width="109.171" height="117.671" x="315.026" y=".474" color-interpolation-filters="sRGB" filterUnits="userSpaceOnUse"><feFlood flood-opacity="0" result="BackgroundImageFix"/><feBlend in="SourceGraphic" in2="BackgroundImageFix" result="shape"/><feGaussianBlur result="effect1_foregroundBlur_5431_24672" stdDeviation="8.079"/></filter><filter id="v" width="84.856" height="93.356" x="327.024" y="16.122" color-interpolation-filters="sRGB" filterUnits="userSpaceOnUse"><feFlood flood-opacity="0" result="BackgroundImageFix"/><feBlend in="SourceGraphic" in2="BackgroundImageFix" result="shape"/><feGaussianBlur result="effect1_foregroundBlur_5431_24672" stdDeviation="2"/></filter><filter id="w" width="110.543" height="119.142" x="322.83" y="9.978" color-interpolation-filters="sRGB" filterUnits="userSpaceOnUse"><feFlood flood-opacity="0" result="BackgroundImageFix"/><feBlend in="SourceGraphic" in2="BackgroundImageFix" result="shape"/><feGaussianBlur result="effect1_foregroundBlur_5431_24672" stdDeviation="8.079"/></filter><filter id="x" width="86.228" height="94.828" x="334.826" y="25.688" color-interpolation-filters="sRGB" filterUnits="userSpaceOnUse"><feFlood flood-opacity="0" result="BackgroundImageFix"/><feBlend in="SourceGraphic" in2="BackgroundImageFix" result="shape"/><feGaussianBlur result="effect1_foregroundBlur_5431_24672" stdDeviation="2"/></filter><filter id="y" width="110.543" height="117.671" x="331.32" y="20.848" color-interpolation-filters="sRGB" filterUnits="userSpaceOnUse"><feFlood flood-opacity="0" result="BackgroundImageFix"/><feBlend in="SourceGraphic" in2="BackgroundImageFix" result="shape"/><feGaussianBlur result="effect1_foregroundBlur_5431_24672" stdDeviation="8.079"/></filter><filter id="z" width="86.228" height="93.356" x="343.315" y="36.497" color-interpolation-filters="sRGB" filterUnits="userSpaceOnUse"><feFlood flood-opacity="0" result="BackgroundImageFix"/><feBlend in="SourceGraphic" in2="BackgroundImageFix" result="shape"/><feGaussianBlur result="effect1_foregroundBlur_5431_24672" stdDeviation="2"/></filter><filter id="A" width="109.857" height="119.142" x="339.727" y="29.503" color-interpolation-filters="sRGB" filterUnits="userSpaceOnUse"><feFlood flood-opacity="0" result="BackgroundImageFix"/><feBlend in="SourceGraphic" in2="BackgroundImageFix" result="shape"/><feGaussianBlur result="effect1_foregroundBlur_5431_24672" stdDeviation="8.079"/></filter><filter id="B" width="85.543" height="94.828" x="351.724" y="45.213" color-interpolation-filters="sRGB" filterUnits="userSpaceOnUse"><feFlood flood-opacity="0" result="BackgroundImageFix"/><feBlend in="SourceGraphic" in2="BackgroundImageFix" result="shape"/><feGaussianBlur result="effect1_foregroundBlur_5431_24672" stdDeviation="2"/></filter><filter id="C" width="109.171" height="117.671" x="348.984" y="39.525" color-interpolation-filters="sRGB" filterUnits="userSpaceOnUse"><feFlood flood-opacity="0" result="BackgroundImageFix"/><feBlend in="SourceGraphic" in2="BackgroundImageFix" result="shape"/><feGaussianBlur result="effect1_foregroundBlur_5431_24672" stdDeviation="8.079"/></filter><filter id="D" width="84.856" height="93.356" x="360.981" y="55.174" color-interpolation-filters="sRGB" filterUnits="userSpaceOnUse"><feFlood flood-opacity="0" result="BackgroundImageFix"/><feBlend in="SourceGraphic" in2="BackgroundImageFix" result="shape"/><feGaussianBlur result="effect1_foregroundBlur_5431_24672" stdDeviation="2"/></filter><filter id="E" width="109.171" height="117.671" x="306.535" y="155.83" color-interpolation-filters="sRGB" filterUnits="userSpaceOnUse"><feFlood flood-opacity="0" result="BackgroundImageFix"/><feBlend in="SourceGraphic" in2="BackgroundImageFix" result="shape"/><feGaussianBlur result="effect1_foregroundBlur_5431_24672" stdDeviation="8.079"/></filter><filter id="F" width="84.856" height="93.356" x="318.535" y="171.479" color-interpolation-filters="sRGB" filterUnits="userSpaceOnUse"><feFlood flood-opacity="0" result="BackgroundImageFix"/><feBlend in="SourceGraphic" in2="BackgroundImageFix" result="shape"/><feGaussianBlur result="effect1_foregroundBlur_5431_24672" stdDeviation="2"/></filter><filter id="G" width="110.543" height="119.142" x="314.341" y="165.335" color-interpolation-filters="sRGB" filterUnits="userSpaceOnUse"><feFlood flood-opacity="0" result="BackgroundImageFix"/><feBlend in="SourceGraphic" in2="BackgroundImageFix" result="shape"/><feGaussianBlur result="effect1_foregroundBlur_5431_24672" stdDeviation="8.079"/></filter><filter id="H" width="86.228" height="94.828" x="326.337" y="181.045" color-interpolation-filters="sRGB" filterUnits="userSpaceOnUse"><feFlood flood-opacity="0" result="BackgroundImageFix"/><feBlend in="SourceGraphic" in2="BackgroundImageFix" result="shape"/><feGaussianBlur result="effect1_foregroundBlur_5431_24672" stdDeviation="2"/></filter><filter id="I" width="110.543" height="117.671" x="322.83" y="176.205" color-interpolation-filters="sRGB" filterUnits="userSpaceOnUse"><feFlood flood-opacity="0" result="BackgroundImageFix"/><feBlend in="SourceGraphic" in2="BackgroundImageFix" result="shape"/><feGaussianBlur result="effect1_foregroundBlur_5431_24672" stdDeviation="8.079"/></filter><filter id="J" width="86.228" height="93.356" x="334.826" y="191.854" color-interpolation-filters="sRGB" filterUnits="userSpaceOnUse"><feFlood flood-opacity="0" result="BackgroundImageFix"/><feBlend in="SourceGraphic" in2="BackgroundImageFix" result="shape"/><feGaussianBlur result="effect1_foregroundBlur_5431_24672" stdDeviation="2"/></filter><filter id="K" width="109.857" height="119.142" x="331.237" y="184.862" color-interpolation-filters="sRGB" filterUnits="userSpaceOnUse"><feFlood flood-opacity="0" result="BackgroundImageFix"/><feBlend in="SourceGraphic" in2="BackgroundImageFix" result="shape"/><feGaussianBlur result="effect1_foregroundBlur_5431_24672" stdDeviation="8.079"/></filter><filter id="L" width="85.543" height="94.828" x="343.234" y="200.57" color-interpolation-filters="sRGB" filterUnits="userSpaceOnUse"><feFlood flood-opacity="0" result="BackgroundImageFix"/><feBlend in="SourceGraphic" in2="BackgroundImageFix" result="shape"/><feGaussianBlur result="effect1_foregroundBlur_5431_24672" stdDeviation="2"/></filter><filter id="M" width="109.171" height="117.671" x="340.493" y="194.882" color-interpolation-filters="sRGB" filterUnits="userSpaceOnUse"><feFlood flood-opacity="0" result="BackgroundImageFix"/><feBlend in="SourceGraphic" in2="BackgroundImageFix" result="shape"/><feGaussianBlur result="effect1_foregroundBlur_5431_24672" stdDeviation="8.079"/></filter><filter id="N" width="84.856" height="93.356" x="352.492" y="210.532" color-interpolation-filters="sRGB" filterUnits="userSpaceOnUse"><feFlood flood-opacity="0" result="BackgroundImageFix"/><feBlend in="SourceGraphic" in2="BackgroundImageFix" result="shape"/><feGaussianBlur result="effect1_foregroundBlur_5431_24672" stdDeviation="2"/></filter><filter id="O" width="109.171" height="117.671" x=".914" y=".474" color-interpolation-filters="sRGB" filterUnits="userSpaceOnUse"><feFlood flood-opacity="0" result="BackgroundImageFix"/><feBlend in="SourceGraphic" in2="BackgroundImageFix" result="shape"/><feGaussianBlur result="effect1_foregroundBlur_5431_24672" stdDeviation="8.079"/></filter><filter id="P" width="84.856" height="93.356" x="12.913" y="16.122" color-interpolation-filters="sRGB" filterUnits="userSpaceOnUse"><feFlood flood-opacity="0" result="BackgroundImageFix"/><feBlend in="SourceGraphic" in2="BackgroundImageFix" result="shape"/><feGaussianBlur result="effect1_foregroundBlur_5431_24672" stdDeviation="2"/></filter><filter id="Q" width="110.543" height="119.142" x="8.72" y="9.978" color-interpolation-filters="sRGB" filterUnits="userSpaceOnUse"><feFlood flood-opacity="0" result="BackgroundImageFix"/><feBlend in="SourceGraphic" in2="BackgroundImageFix" result="shape"/><feGaussianBlur result="effect1_foregroundBlur_5431_24672" stdDeviation="8.079"/></filter><filter id="R" width="86.228" height="94.828" x="20.715" y="25.688" color-interpolation-filters="sRGB" filterUnits="userSpaceOnUse"><feFlood flood-opacity="0" result="BackgroundImageFix"/><feBlend in="SourceGraphic" in2="BackgroundImageFix" result="shape"/><feGaussianBlur result="effect1_foregroundBlur_5431_24672" stdDeviation="2"/></filter><filter id="S" width="110.543" height="117.671" x="17.209" y="20.848" color-interpolation-filters="sRGB" filterUnits="userSpaceOnUse"><feFlood flood-opacity="0" result="BackgroundImageFix"/><feBlend in="SourceGraphic" in2="BackgroundImageFix" result="shape"/><feGaussianBlur result="effect1_foregroundBlur_5431_24672" stdDeviation="8.079"/></filter><filter id="T" width="86.228" height="93.356" x="29.204" y="36.497" color-interpolation-filters="sRGB" filterUnits="userSpaceOnUse"><feFlood flood-opacity="0" result="BackgroundImageFix"/><feBlend in="SourceGraphic" in2="BackgroundImageFix" result="shape"/><feGaussianBlur result="effect1_foregroundBlur_5431_24672" stdDeviation="2"/></filter><filter id="U" width="109.857" height="119.142" x="25.615" y="29.503" color-interpolation-filters="sRGB" filterUnits="userSpaceOnUse"><feFlood flood-opacity="0" result="BackgroundImageFix"/><feBlend in="SourceGraphic" in2="BackgroundImageFix" result="shape"/><feGaussianBlur result="effect1_foregroundBlur_5431_24672" stdDeviation="8.079"/></filter><filter id="V" width="85.543" height="94.828" x="37.613" y="45.213" color-interpolation-filters="sRGB" filterUnits="userSpaceOnUse"><feFlood flood-opacity="0" result="BackgroundImageFix"/><feBlend in="SourceGraphic" in2="BackgroundImageFix" result="shape"/><feGaussianBlur result="effect1_foregroundBlur_5431_24672" stdDeviation="2"/></filter><filter id="W" width="109.171" height="117.671" x="34.872" y="39.525" color-interpolation-filters="sRGB" filterUnits="userSpaceOnUse"><feFlood flood-opacity="0" result="BackgroundImageFix"/><feBlend in="SourceGraphic" in2="BackgroundImageFix" result="shape"/><feGaussianBlur result="effect1_foregroundBlur_5431_24672" stdDeviation="8.079"/></filter><filter id="X" width="84.856" height="93.356" x="46.871" y="55.174" color-interpolation-filters="sRGB" filterUnits="userSpaceOnUse"><feFlood flood-opacity="0" result="BackgroundImageFix"/><feBlend in="SourceGraphic" in2="BackgroundImageFix" result="shape"/><feGaussianBlur result="effect1_foregroundBlur_5431_24672" stdDeviation="2"/></filter><filter id="Y" width="109.171" height="117.671" x=".065" y="155.83" color-interpolation-filters="sRGB" filterUnits="userSpaceOnUse"><feFlood flood-opacity="0" result="BackgroundImageFix"/><feBlend in="SourceGraphic" in2="BackgroundImageFix" result="shape"/><feGaussianBlur result="effect1_foregroundBlur_5431_24672" stdDeviation="8.079"/></filter><filter id="Z" width="84.856" height="93.356" x="12.065" y="171.479" color-interpolation-filters="sRGB" filterUnits="userSpaceOnUse"><feFlood flood-opacity="0" result="BackgroundImageFix"/><feBlend in="SourceGraphic" in2="BackgroundImageFix" result="shape"/><feGaussianBlur result="effect1_foregroundBlur_5431_24672" stdDeviation="2"/></filter><filter id="aa" width="110.543" height="119.142" x="7.87" y="165.335" color-interpolation-filters="sRGB" filterUnits="userSpaceOnUse"><feFlood flood-opacity="0" result="BackgroundImageFix"/><feBlend in="SourceGraphic" in2="BackgroundImageFix" result="shape"/><feGaussianBlur result="effect1_foregroundBlur_5431_24672" stdDeviation="8.079"/></filter><filter id="ab" width="86.228" height="94.828" x="19.866" y="181.045" color-interpolation-filters="sRGB" filterUnits="userSpaceOnUse"><feFlood flood-opacity="0" result="BackgroundImageFix"/><feBlend in="SourceGraphic" in2="BackgroundImageFix" result="shape"/><feGaussianBlur result="effect1_foregroundBlur_5431_24672" stdDeviation="2"/></filter><filter id="ac" width="110.543" height="117.671" x="16.36" y="176.205" color-interpolation-filters="sRGB" filterUnits="userSpaceOnUse"><feFlood flood-opacity="0" result="BackgroundImageFix"/><feBlend in="SourceGraphic" in2="BackgroundImageFix" result="shape"/><feGaussianBlur result="effect1_foregroundBlur_5431_24672" stdDeviation="8.079"/></filter><filter id="ad" width="86.228" height="93.356" x="28.355" y="191.854" color-interpolation-filters="sRGB" filterUnits="userSpaceOnUse"><feFlood flood-opacity="0" result="BackgroundImageFix"/><feBlend in="SourceGraphic" in2="BackgroundImageFix" result="shape"/><feGaussianBlur result="effect1_foregroundBlur_5431_24672" stdDeviation="2"/></filter><filter id="ae" width="109.857" height="119.142" x="24.767" y="184.862" color-interpolation-filters="sRGB" filterUnits="userSpaceOnUse"><feFlood flood-opacity="0" result="BackgroundImageFix"/><feBlend in="SourceGraphic" in2="BackgroundImageFix" result="shape"/><feGaussianBlur result="effect1_foregroundBlur_5431_24672" stdDeviation="8.079"/></filter><filter id="af" width="85.543" height="94.828" x="36.764" y="200.57" color-interpolation-filters="sRGB" filterUnits="userSpaceOnUse"><feFlood flood-opacity="0" result="BackgroundImageFix"/><feBlend in="SourceGraphic" in2="BackgroundImageFix" result="shape"/><feGaussianBlur result="effect1_foregroundBlur_5431_24672" stdDeviation="2"/></filter><filter id="ag" width="109.171" height="117.671" x="34.024" y="194.882" color-interpolation-filters="sRGB" filterUnits="userSpaceOnUse"><feFlood flood-opacity="0" result="BackgroundImageFix"/><feBlend in="SourceGraphic" in2="BackgroundImageFix" result="shape"/><feGaussianBlur result="effect1_foregroundBlur_5431_24672" stdDeviation="8.079"/></filter><filter id="ah" width="84.856" height="93.356" x="46.023" y="210.532" color-interpolation-filters="sRGB" filterUnits="userSpaceOnUse"><feFlood flood-opacity="0" result="BackgroundImageFix"/><feBlend in="SourceGraphic" in2="BackgroundImageFix" result="shape"/><feGaussianBlur result="effect1_foregroundBlur_5431_24672" stdDeviation="2"/></filter></defs></svg>