<svg xmlns="http://www.w3.org/2000/svg" fill="none" viewBox="0 0 48 50">
  <path fill="#fff" d="M19.69 39.48h8.266V50H19.69V39.48z"/>
  <path fill="#050038" fill-rule="evenodd" d="M25.956 41.48H21.69V48h4.266v-6.52zm-6.266-2V50h8.266V39.48H19.69z" clip-rule="evenodd"/>
  <path fill="#fff" d="M.154 11.678h47.339v32.31H.153v-32.31z"/>
  <path fill="#050038" fill-rule="evenodd" d="M45.493 13.678H2.153v28.31h43.34v-28.31zm-45.34-2v32.31h47.34v-32.31H.153zM10 49c0-.552.457-1 1.02-1h24.96c.564 0 1.02.448 1.02 1s-.456 1-1.02 1H11.02A1.01 1.01 0 0110 49z" clip-rule="evenodd"/>
  <path fill="#FFD02F" d="M28.97 27.687a5.337 5.337 0 11-10.672 0 5.337 5.337 0 0110.673 0z"/>
  <path fill="#050038" fill-rule="evenodd" d="M23.634 31.024a3.337 3.337 0 100-6.673 3.337 3.337 0 000 6.673zm0 2a5.337 5.337 0 100-10.673 5.337 5.337 0 000 10.673z" clip-rule="evenodd"/>
  <path fill="#fff" d="M20.433 11.678h6.404v2.135h-6.404z"/>
  <path fill="#050038" fill-rule="evenodd" d="M27.888 9.683a1 1 0 01-1.364-.376c-.808-1.424-1.463-2.622-1.98-3.569-.277-.506-.515-.94-.716-1.299-.105-.188-.2-.355-.285-.502-.075.145-.156.308-.246.49-.138.28-.291.597-.461.949-.517 1.07-1.19 2.46-2.052 4.1a1 1 0 01-1.77-.932c.845-1.606 1.495-2.95 2.01-4.017.174-.36.333-.687.479-.983.28-.57.53-1.058.75-1.4.107-.164.244-.358.415-.513.14-.127.55-.45 1.112-.307.326.083.548.287.662.402.131.134.252.293.36.45.219.317.474.754.772 1.287.22.393.465.841.746 1.356.51.932 1.138 2.08 1.944 3.5a1 1 0 01-.376 1.364zm-4.873-6.555l.003.003a.127.127 0 01-.003-.003z" clip-rule="evenodd"/>
  <path fill="#050038" fill-rule="evenodd" d="M24.608 3.68v20.023h-2V3.68h2zM30.474 21.568a1 1 0 011.415 0 8.761 8.761 0 010 12.39 1 1 0 01-1.415-1.414 6.761 6.761 0 000-9.561 1 1 0 010-1.415zM16.87 33.958a1 1 0 01-1.415 0 8.761 8.761 0 010-12.39 1 1 0 011.414 1.414 6.761 6.761 0 000 9.562 1 1 0 010 1.414z" clip-rule="evenodd"/>
  <path fill="#050038" fill-rule="evenodd" d="M33.752 17.526a1 1 0 011.414 0c5.654 5.654 5.654 14.82 0 20.474a1 1 0 01-1.414-1.415c4.872-4.872 4.872-12.772 0-17.644a1 1 0 010-1.415zM13.592 38a1 1 0 01-1.414 0c-5.654-5.654-5.654-14.82 0-20.473a1 1 0 011.414 1.414c-4.873 4.873-4.873 12.772 0 17.645a1 1 0 010 1.414z" clip-rule="evenodd"/>
</svg>
