<svg xmlns="http://www.w3.org/2000/svg" fill="none" viewBox="0 0 50 49">
  <path fill="#FF6575" fill-rule="evenodd" d="M25 32.999l-.35 14.478S19.805 48 17.325 48c-2.48 0-7.325-.522-7.325-.522l.41-9.535v-4.587s4.635.055 6.915 0c2.28-.056 7.675-.356 7.675-.356z" clip-rule="evenodd"/>
  <path fill="#050038" fill-rule="evenodd" d="M24.944 32L25 33l-.056-.998-.235.013a615.37 615.37 0 01-2.741.143c-1.636.082-3.542.17-4.667.198-1.124.028-2.84.028-4.284.02a432.906 432.906 0 01-2.393-.018l-.202-.002-.013 1 .013-1a1.002 1.002 0 00-1.013 1v4.565l-.408 9.514a1 1 0 00.892 1.037l.107-.994-.107.994.057.007.16.016.587.06c.496.05 1.184.115 1.95.18 1.521.13 3.39.265 4.678.265 1.287 0 3.157-.134 4.678-.265a147.654 147.654 0 002.538-.24l.16-.017.055-.005-.106-.995.107.994a1 1 0 00.893-.97L26 33.023a1 1 0 00-1.056-1.022zm-1.272 14.572c-.482.047-1.127.109-1.84.17-1.522.13-3.315.257-4.507.257-1.192 0-2.985-.127-4.507-.257-.683-.059-1.304-.117-1.778-.164l.368-8.593.001-.043v-3.577c.44.004.994.008 1.598.01 1.444.008 3.186.008 4.342-.02 1.156-.029 3.087-.118 4.719-.2.721-.036 1.387-.071 1.906-.099l-.302 12.516zM39.776 11.37a1 1 0 01-.145 1.406l-16 13a1 1 0 11-1.262-1.552l16-13a1 1 0 011.407.145z" clip-rule="evenodd"/>
  <path fill="#050038" fill-rule="evenodd" d="M32.68 13.131l9-3.49-5.1 8-3.9-4.51zM5.5 21a1 1 0 011 1v11a1 1 0 11-2 0V22a1 1 0 011-1z" clip-rule="evenodd"/>
  <path fill="#050038" fill-rule="evenodd" d="M0 21.553a1 1 0 011-1h8.92a1 1 0 010 2H1a1 1 0 01-1-1zM18.105 0a1 1 0 01.938.643l2.104 5.5 4.959.526a1 1 0 01.53 1.765l-3.758 3.103L24 16.791a1 1 0 01-1.611.983l-4.276-3.496-4.339 3.5a1 1 0 01-1.588-1.057l1.5-5.17-4.271-3.077A1 1 0 019.9 6.668l5.23-.528L17.173.651A1 1 0 0118.105 0zm.017 3.833l-1.334 3.588a1 1 0 01-.837.647l-3.227.325 2.704 1.948a1 1 0 01.376 1.09l-.81 2.795 2.497-2.014a1 1 0 011.26.004l2.698 2.206-.654-3.06a1 1 0 01.341-.98l2.393-1.975-3.202-.34a1 1 0 01-.829-.637l-1.376-3.597z" clip-rule="evenodd"/>
  <path fill="#fff" fill-rule="evenodd" d="M31.188 28.219c1.665-5.945 13.302-6.783 16.549-2.658 2.092 2.658 1.579 6.25-1.491 7.901-3.07 1.65-6.33 1.306-9.827 1.306-.094 0-3.013 2.232-3.013 2.232v-2.605c0-.199-3.203-2.661-2.218-6.176z" clip-rule="evenodd"/>
  <path fill="#050038" fill-rule="evenodd" d="M38.992 24.106c-3.401.422-6.177 2.01-6.841 4.382-.39 1.39.033 2.59.624 3.53.295.471.622.859.886 1.15.09.099.152.165.212.228l.134.144c.044.048.102.112.153.177.024.031.066.087.106.158l.002.004c.024.041.138.24.138.516v.592c.329-.247.655-.489.914-.678.145-.106.276-.2.377-.269.049-.033.101-.069.15-.098a1.52 1.52 0 01.212-.107l.002-.001c.028-.01.171-.066.359-.066.55 0 1.084.008 1.604.014 2.922.04 5.381.072 7.748-1.2 2.464-1.326 2.93-4.18 1.18-6.402-.63-.798-1.735-1.434-3.188-1.812-1.438-.373-3.121-.466-4.772-.262zM33.406 37l.608.794-1.608 1.23v-4.268c-.07-.074-.153-.164-.225-.243a10.196 10.196 0 01-1.1-1.431c-.765-1.218-1.451-3.008-.856-5.133 1-3.573 4.876-5.376 8.521-5.828 1.872-.232 3.812-.132 5.52.311 1.695.44 3.261 1.247 4.257 2.51 2.434 3.093 1.872 7.424-1.804 9.4-2.862 1.54-5.908 1.49-8.818 1.443-.398-.007-.794-.013-1.187-.016a92.311 92.311 0 00-1.235.914c-.37.278-.736.556-1.01.764l-.33.252-.126.095-.607-.794z" clip-rule="evenodd"/>
  <path fill="#FF6575" fill-rule="evenodd" d="M46 27.875a1 1 0 01-.96 1.038 153.76 153.76 0 01-4.523.087h-.008c-1.517.015-3.016.03-4.47.086a1 1 0 01-.078-1.998A153.76 153.76 0 0140.483 27h.008c1.517-.015 3.016-.03 4.47-.086a1 1 0 011.038.96zM43 30.379a1 1 0 01-.97 1.03l-6 .183a1 1 0 01-.06-1.999l6-.183a1 1 0 011.03.969z" clip-rule="evenodd"/>
</svg>
